<svg width="25" height="24" viewBox="0 0 25 24" fill="none" xmlns="http://www.w3.org/2000/svg">
<path d="M12.9849 0.90625C6.35486 0.90625 0.984863 6.18625 0.984863 12.6983C0.984863 17.9093 4.42286 22.3283 9.18986 23.8863C9.78986 23.9973 10.0099 23.6323 10.0099 23.3193C10.0099 23.0393 9.99986 22.2973 9.99486 21.3143C6.65686 22.0253 5.95286 19.7323 5.95286 19.7323C5.40686 18.3713 4.61786 18.0073 4.61786 18.0073C3.53086 17.2763 4.70186 17.2913 4.70186 17.2913C5.90686 17.3733 6.53986 18.5063 6.53986 18.5063C7.60986 20.3093 9.34886 19.7883 10.0349 19.4873C10.1429 18.7243 10.4519 18.2053 10.7949 17.9103C8.12986 17.6153 5.32886 16.6013 5.32886 12.0833C5.32886 10.7963 5.79386 9.74425 6.56386 8.91925C6.42886 8.62125 6.02386 7.42225 6.66886 5.79825C6.66886 5.79825 7.67386 5.48225 9.96886 7.00725C10.9289 6.74525 11.9489 6.61525 12.9689 6.60925C13.9889 6.61525 15.0089 6.74525 15.9689 7.00725C18.2489 5.48225 19.2539 5.79825 19.2539 5.79825C19.8989 7.42225 19.4939 8.62125 19.3739 8.91925C20.1389 9.74425 20.6039 10.7963 20.6039 12.0833C20.6039 16.6133 17.7989 17.6103 15.1289 17.9003C15.5489 18.2543 15.9389 18.9773 15.9389 20.0823C15.9389 21.6603 15.9239 22.9283 15.9239 23.3113C15.9239 23.6203 16.1339 23.9893 16.7489 23.8713C21.5499 22.3233 24.9849 17.9013 24.9849 12.6983C24.9849 6.18625 19.6119 0.90625 12.9849 0.90625V0.90625Z" fill="#DBDBDB"/>
</svg>
