<svg width="55" height="56" viewBox="0 0 55 56" fill="none" xmlns="http://www.w3.org/2000/svg">
<g clip-path="url(#clip0)">
<path d="M27.5054 0.57666C12.5994 0.57666 0.505371 12.8871 0.505371 28.0718C0.505371 43.2663 12.5994 55.5767 27.5054 55.5767C42.4114 55.5767 54.5054 43.2663 54.5054 28.0718C54.5054 12.8871 42.4114 0.57666 27.5054 0.57666Z" fill="#DBDBDB"/>
<path d="M27.5054 0.57666C27.123 0.57666 26.743 0.586758 26.3645 0.602871C40.7417 1.21217 52.2236 13.2766 52.2236 28.0718C52.2236 42.8765 40.7417 54.9412 26.3645 55.5504C26.743 55.5666 27.123 55.5767 27.5054 55.5767C42.4114 55.5767 54.5054 43.2663 54.5054 28.0718C54.5054 12.8871 42.4114 0.57666 27.5054 0.57666Z" fill="#DBDBDB"/>
<path d="M27.5052 51.7053C14.7145 51.7053 4.30859 41.1049 4.30859 28.0751C4.30859 15.0453 14.7145 4.44434 27.5052 4.44434C40.2959 4.44434 50.7022 15.0453 50.7022 28.0751C50.7022 41.1049 40.2959 51.7053 27.5052 51.7053Z" fill="white"/>
<path d="M22.1282 9.25087C22.0697 9.11896 22.1397 8.96362 22.2766 8.92495C23.9409 8.45466 25.6942 8.20361 27.5056 8.20361C29.3142 8.20361 31.066 8.45423 32.7284 8.92356C32.8653 8.96223 32.9354 9.11745 32.8769 9.24937L27.7173 20.8982C27.635 21.0838 27.3762 21.0839 27.2939 20.8983L22.1282 9.25087Z" fill="#DBDBDB"/>
<path d="M38.2031 11.454C40.1276 12.7414 41.8145 14.366 43.1839 16.245C43.2344 16.3142 43.2436 16.4061 43.2088 16.4846L34.4611 36.2008C34.3818 36.3796 34.1356 36.3881 34.0447 36.215L30.8607 30.157C30.8203 30.0801 30.7415 30.032 30.6558 30.032H24.3553C24.2697 30.032 24.191 30.0801 24.1505 30.157L20.9667 36.2146C20.8758 36.3876 20.6295 36.3792 20.5502 36.2002L11.8154 16.4659C11.7806 16.3874 11.79 16.2954 11.8405 16.2263C13.2073 14.355 14.8895 12.7373 16.8074 11.4544C16.9252 11.3755 17.0849 11.4226 17.145 11.5525L24.1535 26.7025C24.1918 26.7853 24.2737 26.8383 24.3636 26.8383H30.6699C30.7599 26.8383 30.8419 26.7853 30.8801 26.7023L37.8654 11.5525C37.9253 11.4223 38.0852 11.3751 38.2031 11.454Z" fill="#DBDBDB"/>
<path d="M8.92916 23.5562C8.83814 23.3502 8.54082 23.3785 8.49104 23.5985C8.16567 25.0379 7.99365 26.5369 7.99365 28.0765C7.99365 35.6196 12.1195 42.1809 18.198 45.5475C18.393 45.6554 18.6112 45.4473 18.5201 45.2413L8.92916 23.5562Z" fill="#DBDBDB"/>
<path d="M22.1077 47.1792C23.8215 47.681 25.6329 47.9496 27.5057 47.9496C29.3759 47.9496 31.1848 47.6815 32.8973 47.1813L27.5057 34.9863L22.1077 47.1792Z" fill="#DBDBDB"/>
<path d="M36.4919 45.2406C36.4005 45.4467 36.6188 45.655 36.8139 45.5471C42.8918 42.1801 47.0171 35.6194 47.0171 28.0766C47.0171 26.5529 46.849 25.0692 46.5301 23.6439C46.4809 23.4236 46.1834 23.395 46.0921 23.6008L36.4919 45.2406Z" fill="#DBDBDB"/>
</g>
<defs>
<clipPath id="clip0">
<rect width="54" height="55" fill="white" transform="translate(0.505371 0.57666)"/>
</clipPath>
</defs>
</svg>
