<svg width="111" height="112" viewBox="0 0 111 112" fill="none" xmlns="http://www.w3.org/2000/svg">
<path fill-rule="evenodd" clip-rule="evenodd" d="M7.97375 60.4009C7.29589 60.4016 6.64602 60.6738 6.1668 61.1576C5.68758 61.6414 5.41818 62.2973 5.41772 62.9813V68.7105C5.41855 69.3946 5.68774 70.0505 6.16644 70.5348C6.64622 71.0178 7.29603 71.2895 7.97375 71.2903H103.08C103.758 71.2894 104.408 71.0176 104.888 70.5342C105.366 70.0498 105.636 69.394 105.636 68.7099V62.9807C105.636 62.2965 105.367 61.6404 104.887 61.1564C104.407 60.6735 103.757 60.4018 103.079 60.4009H7.97375ZM76.6019 75.1054C76.2338 75.1929 75.8372 74.761 76.3189 74.472C76.3845 74.4472 76.4707 74.4414 76.5574 74.4449C77.7279 74.438 78.8869 74.4685 80.0659 74.4236C80.2519 74.3401 80.2565 74.1449 80.2154 74.0389C80.1942 73.9881 80.1588 73.9447 80.1135 73.9139C80.0682 73.8831 80.0149 73.8663 79.9603 73.8656H76.5665C76.2298 73.8644 75.8578 73.9059 75.6158 74.3798C75.4766 74.7478 75.3984 75.2269 76.0392 75.5891C76.1539 75.6398 76.2881 75.6743 76.4296 75.6801L79.3006 75.6813C79.5802 75.6542 79.8245 75.9807 79.5814 76.2784C79.461 76.3752 79.3474 76.3763 79.1882 76.3729C78.0246 76.3798 76.8701 76.3493 75.6963 76.3942C75.5091 76.4777 75.5045 76.6717 75.5468 76.7788C75.5677 76.8295 75.603 76.8728 75.6481 76.9034C75.6933 76.934 75.7463 76.9505 75.8007 76.951H79.1871C79.4981 76.9545 79.7577 76.932 80.0545 76.6205C80.2873 76.2548 80.4534 75.7578 79.8873 75.2845C79.5831 75.0875 79.4193 75.1135 79.0861 75.1048L76.6019 75.1054ZM69.4229 74.8952C69.4006 74.6084 69.4172 74.3338 69.044 74.0383C68.6719 73.7585 68.1994 73.8788 67.7668 73.8529C67.5248 73.861 67.2909 73.907 67.0267 74.1668C66.7447 74.4875 66.7579 74.6775 66.7482 75.0161C66.7562 75.5955 66.7236 76.1633 66.7704 76.7518C66.8943 76.9712 67.0803 76.9971 67.28 76.8474C67.3071 76.8203 67.3287 76.7881 67.3434 76.7527C67.358 76.7172 67.3656 76.6791 67.3656 76.6406V75.0156C67.3702 74.7996 67.3479 74.5958 67.6544 74.4789C67.9533 74.4552 68.2535 74.454 68.5526 74.4754C68.6576 74.4777 68.8237 74.6441 68.8054 74.8958V75.8914C68.8288 76.1782 68.8111 76.4529 69.1855 76.7483C69.5564 77.0282 70.0295 76.9078 70.4615 76.9326C70.7046 76.9257 70.9375 76.8796 71.2017 76.6199C71.4836 76.2992 71.4705 76.1091 71.4802 75.7694C71.4733 75.1912 71.5047 74.6234 71.4579 74.0349C71.3341 73.8155 71.148 73.7884 70.9494 73.9393C70.9222 73.9661 70.9005 73.998 70.8856 74.0333C70.8707 74.0686 70.8629 74.1065 70.8627 74.1449V75.7699C70.8581 75.9859 70.8804 76.1903 70.5739 76.3066C70.2751 76.332 69.9747 76.3332 69.6757 76.3101C69.5707 76.3089 69.4046 76.1425 69.4229 75.8903V74.8952ZM9.43581 73.8903C9.29228 73.9168 9.15674 73.9764 9.03975 74.0644C8.92276 74.1524 8.82746 74.2664 8.76128 74.3977C8.68481 74.5336 8.67054 74.7443 8.67054 74.9148L8.67225 75.9346C8.69223 76.2427 8.68823 76.4518 9.05517 76.7581C9.23665 76.9078 9.57163 76.9671 9.84612 76.947C10.9652 76.9424 12.0615 76.9694 13.2034 76.9349C13.4927 76.8721 13.4779 76.3942 13.1526 76.3723C12.0312 76.3631 10.8967 76.37 9.76851 76.37C9.56592 76.4149 9.20355 76.2565 9.25605 75.9369C9.25719 75.5379 9.25148 75.1584 9.2589 74.7403C9.26461 74.6366 9.43695 74.4173 9.67492 74.438C10.8237 74.4391 12.0021 74.4414 13.1212 74.4391C13.2804 74.5007 13.6685 74.0579 13.1657 73.8777C11.9964 73.8673 10.8231 73.8742 9.65152 73.8719C9.57925 73.8724 9.50713 73.8785 9.43581 73.8903ZM84.8298 74.1449C84.8858 74.028 84.5365 73.6761 84.2917 74.0055C84.2677 74.048 84.2551 74.096 84.2552 74.1449C84.2586 75.011 84.2438 75.8747 84.2643 76.7443C84.2398 76.8998 84.7237 77.095 84.8207 76.7443C84.8407 76.3976 84.8276 76.0492 84.831 75.7014H88.3823C88.3857 76.0492 88.372 76.393 88.3925 76.7443C88.3669 76.8998 88.8508 77.095 88.9478 76.7443C88.9655 75.8557 88.9655 74.966 88.9478 74.0729C88.9735 73.9174 88.4895 73.7222 88.3925 74.0729C88.3726 74.4207 88.3857 74.7726 88.3823 75.1221H84.831V74.1449H84.8298ZM18.0118 74.1449C18.0678 74.028 17.7197 73.6761 17.4748 74.0055C17.4502 74.0478 17.4372 74.0959 17.4372 74.1449C17.4406 75.011 17.4269 75.8747 17.4469 76.7443C17.4212 76.8998 17.9051 77.095 18.0027 76.7443C18.0227 76.3976 18.009 76.0492 18.0118 75.7014H21.5637C21.5665 76.0492 21.5528 76.393 21.5734 76.7443C21.5477 76.8998 22.0316 77.095 22.1292 76.7443C22.1458 75.8539 22.1458 74.9633 22.1292 74.0729C22.1549 73.9174 21.6704 73.7222 21.5734 74.0729C21.5528 74.4207 21.5665 74.7726 21.5637 75.1221H18.0118V74.1449ZM29.4966 75.6847C29.5649 75.6839 29.6308 75.6594 29.6833 75.6152C29.7357 75.5711 29.7715 75.51 29.7845 75.4423C29.7975 75.3746 29.787 75.3045 29.7547 75.2438C29.7224 75.183 29.6703 75.1354 29.6073 75.1089C28.6719 75.0616 27.7275 75.0945 26.7876 75.0864C26.8298 74.8964 26.6375 74.7443 26.9976 74.4904C27.039 74.4729 27.0834 74.4641 27.1283 74.4645H29.9411C30.1055 74.442 30.3046 74.6637 30.2818 74.8077C30.2892 75.4555 30.2578 76.093 30.3046 76.7524C30.3372 76.8065 30.352 76.8998 30.558 76.9314C30.6499 76.9729 30.9227 76.7955 30.8879 76.6401L30.8873 74.8077C30.8873 74.5545 30.7876 74.3116 30.6102 74.1326C30.4327 73.9535 30.1921 73.8529 29.9411 73.8529H27.1283C26.8218 73.8172 26.3379 74.1443 26.2534 74.442C26.2061 74.558 26.1816 74.6822 26.1815 74.8077C26.1884 75.4555 26.1581 76.093 26.2049 76.7524C26.2934 76.9504 26.496 76.9539 26.609 76.9084C26.6626 76.8877 26.7086 76.8507 26.7406 76.8026C26.7726 76.7544 26.789 76.6974 26.7876 76.6395V75.6847H29.4966ZM97.7447 76.8577C97.8651 76.9769 98.1961 76.9982 98.2263 76.617V74.7749C98.2366 74.6804 98.2406 74.4737 98.5653 74.4305C99.5674 74.4363 100.561 74.4138 101.568 74.446C101.789 74.5272 101.913 74.8802 101.568 75.0818C100.717 75.1209 99.8681 75.0685 99.0047 75.1186C98.7987 75.2344 98.7742 75.4089 98.9145 75.5943C98.9663 75.6466 99.0365 75.6762 99.1097 75.6767H101.534C101.76 75.6588 101.971 75.6484 102.238 75.3023C102.441 74.9505 102.575 74.5013 102.028 74.009C101.872 73.8932 101.665 73.8529 101.458 73.8529H98.6224C98.5721 73.8644 98.2257 73.8339 97.9278 74.1305C97.7526 74.3084 97.6538 74.5488 97.6528 74.7996C97.6562 75.4371 97.6459 76.0717 97.6619 76.7126C97.6876 76.7944 97.6785 76.7765 97.7447 76.8577ZM44.7015 76.8577C44.8213 76.9769 45.1529 76.9982 45.1831 76.617L45.1826 74.7749C45.1923 74.6804 45.1968 74.4737 45.5227 74.4305C46.5236 74.4363 47.5183 74.4138 48.525 74.446C48.7453 74.5272 48.8702 74.8802 48.525 75.0818C47.6735 75.1209 46.8255 75.0685 45.961 75.1186C45.7561 75.2344 45.731 75.4089 45.8714 75.5943C45.8969 75.6203 45.9273 75.641 45.9608 75.6551C45.9943 75.6692 46.0302 75.6765 46.0665 75.6767H48.4902C48.7173 75.6588 48.9267 75.6484 49.1949 75.3023C49.3975 74.9505 49.5311 74.5013 48.9849 74.009C48.8286 73.8932 48.622 73.8529 48.4143 73.8529H45.5792C45.5295 73.8644 45.1826 73.8339 44.8847 74.1305C44.7092 74.3082 44.6103 74.5487 44.6096 74.7996C44.6125 75.4371 44.6022 76.0717 44.6182 76.7126C44.6444 76.7944 44.6364 76.7765 44.7015 76.8577ZM93.0252 76.6712C93.0543 76.7552 92.9619 76.8502 93.286 76.9487C93.3728 76.9879 93.6324 76.818 93.5993 76.6712C93.5925 75.7941 93.6227 74.9269 93.5782 74.0395C93.548 73.9865 93.536 73.899 93.3385 73.8685C93.2518 73.8293 92.9921 73.998 93.0252 74.1449V76.6712ZM53.3802 76.6712C53.4093 76.7552 53.3175 76.8502 53.6416 76.9487C53.7278 76.9879 53.9874 76.818 53.9549 76.6712C53.9475 75.7941 53.9783 74.9269 53.9338 74.0395C53.9024 73.9865 53.8904 73.899 53.693 73.8685C53.6068 73.8293 53.3471 73.998 53.3802 74.1449V76.6712ZM58.9043 76.3539C58.7662 76.3717 58.5979 76.1851 58.6178 76.0636C58.6247 75.5799 58.5933 75.1054 58.639 74.6107C58.6616 74.5584 58.6986 74.5137 58.7456 74.4819C58.7927 74.4502 58.8477 74.4327 58.9043 74.4316C59.9218 74.4397 60.9296 74.408 61.9574 74.4541C62.1012 74.5238 62.1303 74.6217 62.1349 74.7219C62.128 75.2056 62.1594 75.6801 62.1126 76.1748C62.0903 76.2271 62.0535 76.2718 62.0066 76.3035C61.9598 76.3353 61.9048 76.3528 61.8484 76.3539H58.9043ZM61.8478 76.9343C62.1263 76.9672 62.568 76.67 62.6445 76.3976C62.6879 76.2917 62.7101 76.1782 62.7101 76.0636V74.7219C62.7105 74.6076 62.6884 74.4943 62.645 74.3887C62.6016 74.2831 62.5378 74.1873 62.4573 74.1069C62.3774 74.0259 62.2824 73.9616 62.1778 73.9179C62.0732 73.8741 61.9611 73.8516 61.8478 73.8518H58.9043C58.6258 73.8189 58.1841 74.1172 58.1077 74.3896C58.0643 74.4951 58.042 74.6082 58.042 74.7225V76.0642C58.042 76.1785 58.0642 76.2917 58.1075 76.3973C58.1508 76.5029 58.2143 76.5988 58.2944 76.6796C58.3745 76.7605 58.4696 76.8245 58.5742 76.8682C58.6789 76.9119 58.7911 76.9344 58.9043 76.9343H61.8478ZM40.571 74.9649C40.5567 74.6533 40.5681 74.3844 40.1749 74.0516C39.7926 73.7907 39.3218 73.85 38.7922 73.9209C38.4116 73.9704 38.0543 74.491 38.0737 74.9108C38.0623 75.1561 38.1125 75.3686 38.0395 75.6461C37.8729 75.8137 37.628 75.9035 37.4294 75.554C37.3336 75.1066 37.6514 74.6004 37.0323 74.0355C36.6362 73.7567 36.1454 73.842 35.6695 73.888C35.4492 73.9318 35.1462 74.1679 35.0452 74.3798C34.9459 74.5485 34.9219 74.7766 34.9236 75.0156C34.9316 75.5949 34.8991 76.1627 34.9465 76.7524C35.0703 76.9706 35.2563 76.9965 35.4549 76.8468C35.4823 76.8199 35.504 76.7878 35.5188 76.7523C35.5336 76.7167 35.5412 76.6786 35.5411 76.6401V75.015C35.4903 74.772 35.6969 74.4288 35.9417 74.465C36.1688 74.4783 36.3731 74.4155 36.6339 74.5088C36.8696 74.6113 36.7783 75.0657 36.7971 75.3726C36.7971 75.6133 36.8348 75.854 37.0762 76.1045C37.4448 76.4172 37.955 76.514 38.4709 76.0642C38.6256 75.907 38.7471 75.6243 38.6912 75.3691C38.714 75.1117 38.613 74.9079 38.7871 74.6056C39.0228 74.4075 39.3258 74.4967 39.687 74.4967C39.9655 74.5745 39.9444 74.7731 39.9541 74.9643C39.9621 75.5603 39.929 76.1465 39.9769 76.7524C40.1013 76.9706 40.2868 76.9965 40.4854 76.8468C40.5127 76.8199 40.5345 76.7877 40.5494 76.7522C40.5643 76.7167 40.572 76.6786 40.5721 76.6401V74.9649H40.571Z" fill="#DBDBDB"/>
<path fill-rule="evenodd" clip-rule="evenodd" d="M38.7997 67.4232C38.6171 67.4433 38.3295 67.2498 38.2793 67.0725C38.2511 67.0032 38.2366 66.9291 38.2365 66.8542V63.8264C38.2119 63.687 38.2684 63.5736 37.9403 63.3824C37.6955 63.315 37.6983 63.3398 37.5305 63.3824C37.2914 63.4947 37.2429 63.6611 37.2344 63.8264V66.8542C37.2338 67.0617 37.2739 67.2673 37.3523 67.4591C37.4307 67.6509 37.5459 67.8252 37.6913 67.9719C37.8366 68.1187 38.0092 68.2351 38.1993 68.3143C38.3893 68.3936 38.5929 68.4342 38.7986 68.4338H44.4048C44.5595 68.4517 44.8066 68.2864 44.8459 68.1355C44.9127 67.8879 44.8882 67.8925 44.8459 67.7226C44.8031 67.6339 44.7798 67.5562 44.588 67.4606C44.5298 67.437 44.4676 67.4248 44.4048 67.4249L38.7997 67.4232ZM8.54395 66.6101C8.54395 66.8364 8.56335 67.0633 8.61471 67.2568C8.6655 67.4502 8.74254 67.6109 8.83955 67.7526C9.09521 68.1113 9.34174 68.2541 9.6402 68.3428C10.2309 68.4637 10.8399 68.4617 11.4298 68.3371C11.75 68.2357 12.0119 68.128 12.2641 67.7756C12.6687 67.2044 12.582 66.4822 12.5946 65.8309C12.6077 65.6991 12.5432 65.5384 12.7538 65.3743C12.9832 65.2608 13.3638 65.0748 13.6395 65.6317C13.7131 66.1592 13.5852 66.7218 13.741 67.3276C13.8266 67.6345 13.9408 67.8919 14.2837 68.1453C14.7928 68.5432 15.4485 68.4275 16.0528 68.4476C16.4432 68.4361 16.8204 68.3613 17.2478 67.9345C17.5092 67.6443 17.601 67.4307 17.6621 67.1347C17.6958 66.9579 17.7043 66.7396 17.7043 66.5231V63.835C17.6815 63.6956 17.7277 63.5753 17.4087 63.3887C17.237 63.3346 17.0635 63.3012 16.8438 63.4935C16.754 63.5843 16.7035 63.7073 16.7034 63.8356V66.526C16.7074 66.8577 16.6908 67.1905 16.3496 67.3685C16.2571 67.4168 16.1555 67.4382 16.0534 67.4382C15.7281 67.4324 15.4428 67.4583 15.0781 67.4191C14.9417 67.3978 14.7591 67.2637 14.7408 67.1652C14.5263 66.5634 14.8864 65.8246 14.4464 65.027C14.0349 64.3884 13.5613 64.306 13.0505 64.298C12.6682 64.3297 12.3452 64.4183 11.9508 64.7903C11.773 64.9832 11.6483 65.2196 11.589 65.4762C11.5554 65.6685 11.597 65.8136 11.5936 65.9398C11.5873 66.249 11.6147 66.5675 11.5742 66.8652C11.5394 66.97 11.4903 67.2867 11.2244 67.342C10.8791 67.4468 10.4779 67.4071 9.97918 67.3834C9.69841 67.3506 9.58313 67.0696 9.56487 66.9066C9.55133 66.8082 9.54485 66.7089 9.54547 66.6095V63.835C9.52264 63.6956 9.56887 63.5753 9.24986 63.3887C9.07809 63.3346 8.90461 63.3012 8.6849 63.4935C8.59553 63.5846 8.54512 63.7074 8.54452 63.8356V66.6101H8.54395ZM20.6901 67.422C20.508 67.4433 20.2198 67.2487 20.1696 67.0713C20.1412 67.0025 20.1267 66.9287 20.1268 66.8542V64.9211C20.1536 64.7569 20.1 64.6141 20.4744 64.3959C20.5426 64.3677 20.6157 64.3532 20.6895 64.3533H25.2086C25.3907 64.332 25.6789 64.5255 25.7291 64.704C25.7572 64.7728 25.7718 64.8466 25.7719 64.9211V66.8542C25.7456 67.0184 25.7987 67.16 25.4244 67.3794C25.3559 67.4076 25.2823 67.422 25.2086 67.422H20.6901ZM25.2098 68.4344C25.4146 68.4344 25.6195 68.3929 25.809 68.314C26.0947 68.1939 26.3389 67.9912 26.5109 67.7315C26.6829 67.4718 26.775 67.1666 26.7757 66.8542V64.9211C26.7757 64.7143 26.7346 64.507 26.6564 64.3158C26.5774 64.1245 26.4621 63.9506 26.3169 63.8039C26.0229 63.5083 25.6253 63.3417 25.2103 63.3403H20.6901C20.4858 63.3403 20.2803 63.3818 20.0914 63.4607C19.8056 63.5806 19.5613 63.7832 19.3894 64.043C19.2175 64.3028 19.1256 64.6081 19.1253 64.9205V66.8537C19.1253 67.0604 19.1664 67.2677 19.244 67.4589C19.3228 67.6489 19.4386 67.8246 19.5835 67.9708C19.8775 68.2663 20.2751 68.4329 20.6901 68.4344H25.2098ZM29.2866 64.7621C29.3047 64.673 29.3438 64.5896 29.4008 64.5191C29.5343 64.3671 29.8042 64.3412 30.057 64.3412C31.4649 64.3446 32.8379 64.3343 34.2811 64.3492C34.4649 64.3832 34.5876 64.3089 34.8216 64.6136C34.9009 64.8059 34.9831 65.0207 34.6869 65.2695C34.4478 65.3944 34.2395 65.3437 33.9656 65.3535H31.6258C31.1333 65.3737 30.6842 65.3904 30.1712 66.0169C29.8248 66.5444 29.7768 67.1583 30.1923 67.828C30.3635 68.0572 30.5455 68.1822 30.7481 68.272C31.0089 68.397 31.4152 68.4275 31.8341 68.424H35.4236C35.5629 68.4016 35.6816 68.4465 35.867 68.1269C35.9144 67.976 35.9589 67.7837 35.7626 67.5556C35.6726 67.4651 35.5507 67.4141 35.4236 67.414H31.833C31.6127 67.4105 31.4261 67.4209 31.2184 67.369C30.832 67.2262 30.8206 66.8686 31.0209 66.564C31.2332 66.3596 31.3896 66.3763 31.6247 66.3648H33.8583C34.0825 66.3365 34.8689 66.4966 35.4333 65.9329C35.9686 65.4244 35.984 64.8635 35.7615 64.2617C35.6542 63.9807 35.3032 63.6231 34.9591 63.497C34.6823 63.3697 34.3416 63.3375 33.9941 63.3449H30.1118C29.588 63.3484 29.2016 63.3133 28.6983 63.7676C28.5708 63.8913 28.4687 64.0393 28.3981 64.203C28.3285 64.3659 28.2942 64.5427 28.2771 64.6395C28.2594 64.7374 28.2583 64.7541 28.26 64.7713C28.248 65.8217 28.256 66.8709 28.2537 67.9219C28.2783 68.0624 28.2269 68.1816 28.5533 68.3705C28.7125 68.4188 28.898 68.4568 29.1143 68.2634C29.1588 68.2184 29.1941 68.1651 29.2182 68.1064C29.2423 68.0477 29.2547 67.9848 29.2547 67.9213V65.0362C29.2553 64.9441 29.2644 64.852 29.2866 64.7621ZM46.5049 67.4232C46.3502 67.4053 46.1031 67.5706 46.0638 67.7215C45.9976 67.9691 46.0215 67.9656 46.0638 68.1355C46.1071 68.2242 46.13 68.3019 46.3217 68.3964C46.3797 68.4209 46.442 68.4334 46.5049 68.4332H52.1089C52.5237 68.4322 52.9213 68.266 53.2154 67.9708C53.5081 67.6742 53.6728 67.2728 53.6736 66.8542V64.9211C53.6728 64.5023 53.5081 64.1008 53.2154 63.8039C52.9217 63.5081 52.5238 63.3418 52.1089 63.3415H47.5897C47.3849 63.3415 47.1794 63.3829 46.99 63.4618C46.8005 63.5417 46.6282 63.6578 46.4826 63.8039C46.1897 64.1004 46.025 64.5018 46.0244 64.9205V66.3388C46.0495 66.4782 45.9924 66.5916 46.3206 66.784C46.5654 66.8502 46.5625 66.8266 46.7297 66.784C46.9688 66.6717 47.0179 66.5041 47.0253 66.3388V64.9205C47.0522 64.7564 46.9991 64.6136 47.3734 64.3953C47.4419 64.3671 47.5155 64.3515 47.5892 64.3515H52.1083C52.2909 64.3302 52.5785 64.5249 52.6287 64.7022C52.6572 64.7714 52.6719 64.8456 52.6721 64.9205V66.8537C52.6453 67.0178 52.6984 67.1606 52.3246 67.3788C52.2563 67.4079 52.1829 67.4228 52.1089 67.4226L46.5049 67.4232Z" fill="white"/>
<path fill-rule="evenodd" clip-rule="evenodd" d="M102.729 35.2707H80.633C79.308 35.2327 78.0182 35.337 76.5613 36.2653C76.0609 36.5836 75.6024 36.9645 75.1968 37.3991C74.3945 38.2802 73.9294 39.2522 73.708 40.1961C73.4917 41.1261 73.5139 42.0428 73.5499 42.9009V47.9949C73.5567 48.8817 73.5276 49.7754 73.7627 50.7273C73.8934 51.2289 74.1183 51.7443 74.4213 52.2459C74.7279 52.7552 75.0968 53.2236 75.5193 53.64C75.9359 54.0472 76.3884 54.3742 76.8934 54.6535C77.3973 54.9328 77.9515 55.1643 78.5187 55.3019C79.5853 55.5501 80.6342 55.5213 81.5826 55.5093H102.837C103.396 55.515 104.045 55.5116 104.661 55.1321C105.267 54.7353 105.625 54.0374 105.649 53.4333C105.664 53.1106 105.606 52.7888 105.48 52.4918C105.359 52.194 105.178 51.9249 104.948 51.7011C104.328 51.0688 103.412 51.112 102.677 51.1224H80.5589C80.0396 51.1443 79.4563 51.0579 78.9068 50.6899C78.6562 50.5258 78.432 50.3202 78.275 50.0749C77.9498 49.571 77.9286 48.9324 77.9572 48.337V42.1465C77.9235 41.6754 77.9583 41.152 78.2762 40.6585C78.7076 39.9012 79.6292 39.6058 80.2969 39.6317C80.5286 39.6231 80.7706 39.6075 81.0114 39.6075L102.624 39.6237C102.963 39.6064 103.434 39.6542 103.952 39.543C104.247 39.4717 104.526 39.3462 104.776 39.1728C105.01 39.0141 105.202 38.8007 105.336 38.5508C105.504 38.2497 105.604 37.9148 105.629 37.5701C105.652 37.1969 105.58 36.8239 105.421 36.4864C105.078 35.8408 104.51 35.4953 104.027 35.345C103.564 35.2229 103.113 35.2702 102.729 35.2707ZM9.83291 37.7055C9.83291 37.4037 9.83234 37.0997 9.75074 36.8066C9.66913 36.5134 9.53502 36.233 9.34556 35.9911C8.92612 35.4544 8.34746 35.2345 7.80532 35.2068C7.51143 35.1867 7.20783 35.2039 6.92421 35.2903C6.64417 35.379 6.38414 35.5225 6.15894 35.7124C5.41251 36.358 5.37085 36.9724 5.36514 37.6508V48.7539C5.30807 50.0265 5.60882 51.2554 6.43914 52.5211C6.78168 53.035 7.19829 53.4944 7.67521 53.8842C8.75606 54.7549 10.1993 55.2916 11.5272 55.4286C12.2143 55.5029 12.898 55.4845 13.6399 55.4851C14.3817 55.4862 15.1824 55.5064 15.9208 55.4609C16.6593 55.416 17.3349 55.306 17.9684 55.109C18.6018 54.9121 19.1936 54.6288 19.7603 54.2435C20.9524 53.4742 21.8678 52.1486 22.2062 50.956C22.5434 49.8244 22.5046 48.8903 22.4875 47.9592V44.9146C22.4875 44.6423 22.4824 44.3664 22.5919 44.067C22.7102 43.7386 22.9006 43.4415 23.1489 43.198C23.9216 42.5173 24.991 42.3797 26.0234 43.0034C26.3142 43.1958 26.5509 43.4608 26.7105 43.7727C26.8697 44.0912 26.9176 44.4637 26.9176 44.83C26.9279 46.3692 26.884 47.9125 26.945 49.4317C26.9827 49.939 27.0466 50.455 27.2303 51.0216C27.4135 51.5888 27.716 52.2067 28.0898 52.7377C28.4586 53.2616 28.9122 53.7193 29.4314 54.0915C29.9547 54.4698 30.5574 54.7814 31.164 55.0169C31.77 55.2524 32.3806 55.4119 33.066 55.4655C33.752 55.519 34.5132 55.4672 35.3076 55.4597C36.1014 55.4517 36.9289 55.4897 37.6753 55.4499C38.4229 55.4114 39.0894 55.2962 39.7234 55.0918C40.3575 54.8873 40.9607 54.5925 41.5325 54.1623C42.6481 53.3164 43.5144 52.118 43.8231 51.131C44.1319 50.2338 44.2106 49.4017 44.177 48.6358V42.0123C44.177 41.7244 44.1205 41.4359 44.2186 41.1341C44.3292 40.8105 44.5094 40.5157 44.7465 40.2709C44.9902 40.0152 45.2915 39.8102 45.6596 39.6922C46.0271 39.5736 46.4562 39.6047 46.8774 39.6047H64.527C64.8951 39.6047 65.2638 39.5931 65.6005 39.6415C65.9372 39.6893 66.239 39.7699 66.5101 39.9231C66.7823 40.0757 67.0214 40.3003 67.1778 40.5514C67.3324 40.803 67.4049 41.08 67.3907 41.395C67.3764 41.7106 67.2759 42.063 67.1207 42.3181C66.9666 42.5732 66.7584 42.731 66.5267 42.8536C66.0307 43.1266 65.3876 43.1888 64.7399 43.1767H53.298C52.6659 43.1598 52.0342 43.2201 51.4165 43.3564C50.6199 43.533 49.8624 43.8561 49.1817 44.3094C48.7748 44.5799 48.4018 44.8989 48.0706 45.2596C47.7383 45.6201 47.4591 46.027 47.2415 46.4677C47.0071 46.9451 46.8361 47.4516 46.733 47.9742C46.5188 49.1094 46.5892 50.2807 46.9379 51.3815C47.1373 51.9901 47.4382 52.56 47.8275 53.0665C48.2261 53.5746 48.7039 54.014 49.2422 54.3673C50.7773 55.4309 52.7832 55.5127 54.5346 55.4764H69.2322C69.7595 55.5 70.3034 55.4684 70.813 55.1067C71.0624 54.9353 71.2775 54.7178 71.447 54.4658C71.613 54.2043 71.7231 53.9107 71.7705 53.6039C71.8179 53.297 71.8014 52.9836 71.722 52.6835C71.6341 52.3829 71.459 52.114 71.2604 51.8888C70.8204 51.4005 70.4066 51.2087 69.9878 51.1517C69.7595 51.116 69.5016 51.1143 69.2453 51.1143H53.4549C53.1165 51.1143 52.7752 51.1132 52.4602 51.0216C52.162 50.9348 51.8821 50.7934 51.6345 50.6047C50.9571 50.0858 50.8544 49.332 51.1562 48.5886C51.2515 48.3824 51.3879 48.2005 51.578 48.0375C52.1521 47.4887 53.1302 47.5187 53.904 47.5123H63.9741C64.2931 47.5123 64.6115 47.5169 65.0326 47.5112C65.4549 47.5054 65.9788 47.4968 66.5073 47.4167C67.0696 47.3332 67.617 47.1682 68.1325 46.9267C68.6952 46.6652 69.2893 46.2932 69.7652 45.8855C70.2141 45.4986 70.5987 45.0415 70.9043 44.5317C71.5497 43.536 71.8407 42.2703 71.7523 41.0869C71.7232 40.4995 71.6399 39.9427 71.4555 39.3835C71.2613 38.8032 70.9801 38.2563 70.6218 37.7619C70.2689 37.274 69.8424 36.845 69.3577 36.4904C67.8249 35.4487 66.3161 35.2362 64.7119 35.2742H46.9344C45.9729 35.2564 45.1408 35.2673 44.3305 35.5472C43.9219 35.6819 43.4796 35.8783 43.0419 36.127C42.5966 36.3767 42.1792 36.6738 41.7967 37.0133C41.06 37.6767 40.4824 38.571 40.136 39.4106C39.8039 40.249 39.7537 41.0178 39.7486 41.847V48.2391C39.7486 48.6335 39.764 49.0314 39.6932 49.3626C39.6337 49.6564 39.5146 49.9346 39.3434 50.1797C39.1867 50.4038 38.9882 50.5949 38.759 50.7423C38.2836 51.051 37.6896 51.1437 37.1246 51.1276H34.0322C33.7 51.1276 33.3656 51.131 33.0409 51.0475C32.7137 50.965 32.4047 50.8213 32.1301 50.6237C31.8573 50.4239 31.6268 50.1647 31.4978 49.8854C31.2439 49.2842 31.3181 48.5241 31.3004 47.7386C31.2867 46.481 31.3466 45.2216 31.2604 43.946C31.168 43.0523 30.9026 42.1753 30.2829 41.281C29.6055 40.304 28.69 39.5198 27.6247 39.004C26.5552 38.4754 25.3728 38.2923 24.1904 38.3706C23.5929 38.4109 23.0091 38.5203 22.4978 38.6798C22.0093 38.8314 21.5435 39.049 21.1128 39.3265C20.6503 39.6212 20.2236 39.9694 19.8413 40.3642C19.4217 40.7917 19.0655 41.2781 18.7839 41.8085C18.5031 42.3486 18.3159 42.9412 18.2058 43.4191C18.0951 43.8971 18.0808 44.2605 18.0808 44.6238V48.2229C18.0808 48.6105 18.1071 49.0021 18.0437 49.3257C17.9919 49.614 17.879 49.8876 17.7127 50.1279C17.5564 50.3489 17.3624 50.5402 17.1398 50.6928C16.6867 51.0078 16.1479 51.1103 15.6087 51.1062H12.2457C11.909 51.1062 11.5689 51.0763 11.2727 50.9773C10.9954 50.8862 10.7392 50.7395 10.5194 50.5459C10.323 50.3723 10.1616 50.1621 10.0441 49.9269C9.92993 49.6994 9.85973 49.4553 9.82492 49.1017C9.79011 48.7481 9.83634 48.288 9.83634 47.8296L9.83291 37.7055Z" fill="#DBDBDB"/>
<path fill-rule="evenodd" clip-rule="evenodd" d="M73.5276 66.3694C73.6782 66.3919 73.9379 66.2139 73.9813 66.0602C74.0258 65.8771 74.1251 65.6813 73.7136 65.4193C73.6548 65.3939 73.5915 65.381 73.5276 65.3812H69.0501C69.0826 65.1037 68.9343 64.8457 69.215 64.5198C69.3209 64.413 69.4643 64.3528 69.6139 64.3522H74.1325C74.3151 64.3309 74.6039 64.5255 74.6541 64.7029C74.6821 64.7722 74.6965 64.8463 74.6963 64.9211L74.6986 67.949C74.7231 68.0883 74.6661 68.2018 74.9942 68.3941C75.2396 68.4615 75.235 68.4367 75.4034 68.3941C75.643 68.2818 75.691 68.1154 75.699 67.949L75.6978 64.9211C75.6978 64.7144 75.6567 64.5071 75.5797 64.3159C75.4609 64.0274 75.2602 63.7809 75.0027 63.6075C74.7452 63.4341 74.4426 63.3416 74.1331 63.3416H69.6145C69.4096 63.3416 69.2042 63.383 69.0147 63.4619C68.8253 63.5408 68.6523 63.6589 68.5074 63.804C68.2143 64.1003 68.0495 64.5018 68.0491 64.9206C68.048 65.9295 68.0514 66.9395 68.0503 67.9484C68.0326 68.1045 68.1964 68.3544 68.347 68.3936C68.5924 68.4609 68.5879 68.4362 68.7562 68.3936C68.9947 68.2813 69.0438 68.1148 69.0518 67.9484V66.3694H73.5276ZM96.4537 65.6001C96.271 65.6214 95.9834 65.4267 95.9332 65.2494C95.9048 65.1802 95.8901 65.106 95.8898 65.0311C95.8841 64.5877 95.9087 64.1506 95.8733 63.7015C95.7175 63.2932 95.3625 63.2339 95.0304 63.4844C94.9854 63.5292 94.9497 63.5827 94.9254 63.6416C94.9011 63.7005 94.8887 63.7638 94.8889 63.8276V65.0311C94.8889 65.2379 94.93 65.4452 95.0082 65.6363C95.0875 65.8275 95.2033 66.002 95.3471 66.1483C95.6409 66.4439 96.0387 66.6102 96.4537 66.6107L101.538 66.6118C101.524 66.8146 101.598 67.0098 101.373 67.2574C101.267 67.3636 101.124 67.4234 100.974 67.4238L95.3682 67.425C95.2142 67.4071 94.9671 67.5724 94.9283 67.7233C94.8615 67.9709 94.886 67.9663 94.9283 68.1361C94.9705 68.2248 94.9939 68.3026 95.1845 68.397C95.2427 68.4214 95.3052 68.4339 95.3682 68.4339H100.974C101.18 68.4344 101.384 68.3939 101.574 68.3148C101.764 68.2356 101.937 68.1193 102.082 67.9726C102.228 67.8259 102.343 67.6516 102.422 67.4598C102.5 67.268 102.54 67.0624 102.54 66.8549V63.827C102.515 63.6876 102.571 63.5742 102.244 63.383C101.999 63.3156 102.002 63.3404 101.834 63.383C101.594 63.4953 101.546 63.6617 101.538 63.827V65.6018L96.4537 65.6001ZM87.4588 67.4232C87.2761 67.4434 86.9874 67.2499 86.9372 67.0725C86.9092 67.0032 86.8949 66.9291 86.8949 66.8543V63.8264C86.8693 63.6871 86.9275 63.5736 86.5982 63.3824C86.3539 63.3151 86.3574 63.3398 86.189 63.3824C85.9505 63.4947 85.9014 63.6612 85.8934 63.8264V66.8543C85.8929 67.0618 85.933 67.2674 86.0114 67.4593C86.0899 67.6511 86.2051 67.8254 86.3505 67.9722C86.4959 68.119 86.6686 68.2353 86.8587 68.3145C87.0488 68.3938 87.2525 68.4343 87.4582 68.4339H93.0633C93.218 68.4517 93.4656 68.2864 93.5044 68.1356C93.5712 67.8879 93.5467 67.8926 93.5044 67.7227C93.4622 67.634 93.4388 67.5563 93.2471 67.4607C93.1886 67.437 93.1263 67.4249 93.0633 67.425L87.4588 67.4232ZM78.8451 67.4232C78.6625 67.4434 78.3748 67.2499 78.3235 67.0725C78.2955 67.0032 78.2812 66.9291 78.2813 66.8543V63.8264C78.2567 63.6871 78.3138 63.5736 77.9856 63.3824C77.7403 63.3151 77.7437 63.3398 77.5753 63.3824C77.3368 63.4947 77.2877 63.6612 77.2797 63.8264V66.8543C77.2792 67.0618 77.3193 67.2674 77.3978 67.4593C77.4762 67.6511 77.5914 67.8254 77.7368 67.9722C77.8822 68.119 78.0549 68.2353 78.245 68.3145C78.4351 68.3938 78.6388 68.4343 78.8445 68.4339H84.4508C84.6048 68.4517 84.8519 68.2864 84.8907 68.1356C84.9575 67.8879 84.933 67.8926 84.8907 67.7227C84.8485 67.634 84.8251 67.5563 84.6334 67.4607C84.5753 67.4371 84.5133 67.425 84.4508 67.425L78.8451 67.4232ZM59.8361 64.7622C59.8534 64.673 59.8924 64.5895 59.9496 64.5192C60.0832 64.3672 60.3531 64.3413 60.6059 64.3413C62.0137 64.3447 63.3856 64.3343 64.83 64.3493C65.0126 64.3833 65.1365 64.309 65.3693 64.6136C65.4497 64.806 65.5308 65.0208 65.2357 65.2695C64.9961 65.3945 64.7878 65.3438 64.5133 65.3536H62.1735C61.681 65.3738 61.2319 65.3905 60.7189 66.017C60.3725 66.5445 60.3246 67.1583 60.74 67.8281C60.9118 68.0573 61.0933 68.1822 61.2964 68.272C61.5572 68.397 61.9641 68.4275 62.3818 68.4241H65.9719C66.1112 68.4016 66.2293 68.4465 66.4142 68.1269C66.4621 67.9761 66.5066 67.7837 66.3103 67.5557C66.2203 67.4651 66.0984 67.4142 65.9713 67.414H62.3801C62.1593 67.4106 61.9732 67.4209 61.7661 67.3691C61.3792 67.2263 61.3683 66.8687 61.5686 66.5641C61.7803 66.3596 61.9367 66.3763 62.1718 66.3648H64.4054C64.6297 66.3366 65.4161 66.4967 65.9805 65.9329C66.5158 65.4244 66.5312 64.8636 66.3092 64.2618C66.2013 63.9808 65.8498 63.6232 65.5068 63.497C65.2295 63.3698 64.8893 63.3375 64.5418 63.345H60.6595C60.1357 63.3485 59.7488 63.3133 59.246 63.7677C59.1186 63.8914 59.0168 64.0394 58.9464 64.203C58.8762 64.366 58.8425 64.5428 58.8248 64.6395C58.8072 64.7374 58.806 64.7541 58.8083 64.7714C58.7952 65.8218 58.8037 66.871 58.8014 67.9219C58.826 68.0624 58.7746 68.1816 59.101 68.3705C59.2603 68.4189 59.4463 68.4569 59.6626 68.2634C59.7521 68.1724 59.8025 68.0495 59.803 67.9213V65.0363C59.8047 64.9442 59.8138 64.852 59.8361 64.7622Z" fill="white"/>
</svg>
