<svg width="91" height="90" viewBox="0 0 91 90" fill="none" xmlns="http://www.w3.org/2000/svg">
<g clip-path="url(#clip0)">
<path d="M40.5881 39.9795C40.0834 39.7832 39.4901 39.9134 39.1212 40.3063L36.3245 43.2763L33.5069 40.3026C33.1371 39.9115 32.5839 39.7837 32.0806 39.9805C31.5772 40.1769 31.2671 40.6577 31.2671 41.1931V48.8725C31.2671 49.5927 31.8574 50.1762 32.5854 50.1762C33.3135 50.1762 33.9038 49.5927 33.9038 48.8725V44.4953L35.3791 46.0448C35.6284 46.3085 35.9541 46.4234 36.3189 46.4234C36.3197 46.4234 36.3206 46.4234 36.3215 46.4234C36.6875 46.4234 37.0742 46.3063 37.3231 46.0412L38.8259 44.5148V48.8725C38.8257 49.5925 39.416 50.176 40.144 50.176C40.8721 50.176 41.4624 49.5925 41.4624 48.8723V41.193C41.4624 40.6567 41.0927 40.1752 40.5881 39.9795Z" fill="#DBDBDB"/>
<path d="M44.3628 39.8896C43.6347 39.8896 43.0444 40.4732 43.0444 41.1934V48.8727C43.0444 49.5929 43.6347 50.1764 44.3628 50.1764C45.0909 50.1764 45.6812 49.5929 45.6812 48.8727V41.1934C45.6812 40.4732 45.0909 39.8896 44.3628 39.8896Z" fill="#DBDBDB"/>
<path d="M58.4253 39.8896C57.6972 39.8896 57.1069 40.4732 57.1069 41.1934V48.8727C57.1069 49.5929 57.6972 50.1764 58.4253 50.1764C59.1534 50.1764 59.7437 49.5929 59.7437 48.8727V41.1934C59.7437 40.4732 59.1534 39.8896 58.4253 39.8896Z" fill="#DBDBDB"/>
<path d="M54.2068 39.8892C53.4787 39.8892 52.8883 40.4727 52.8883 41.1929V44.7515L49.7936 40.4431C49.463 39.9778 48.8862 39.7786 48.3387 39.95C47.7906 40.1214 47.4392 40.6245 47.4392 41.1929V48.8722C47.4392 49.5924 48.0295 50.176 48.7576 50.176C49.4857 50.176 50.0759 49.5924 50.0759 48.8722V45.3136L53.1024 49.622C53.3539 49.9759 53.7413 50.1761 54.1625 50.1761C54.2949 50.1761 54.4511 50.1563 54.5823 50.1151C55.1303 49.9437 55.5251 49.4407 55.5251 48.8722V41.1929C55.5251 40.4727 54.9349 39.8892 54.2068 39.8892Z" fill="#DBDBDB"/>
<path d="M89.187 34.6033H65.2442C61.4552 27.6502 54.029 22.9316 45.5063 22.9316C36.9844 22.9316 29.5587 27.6502 25.7694 34.6033H1.82373C1.09564 34.6033 0.505371 35.1869 0.505371 35.907C0.505371 36.6272 1.09564 37.2108 1.82373 37.2108H24.5614C24.1149 38.2537 23.7635 39.4705 23.5169 40.6873H7.95322C7.22514 40.6873 6.63486 41.2709 6.63486 41.991C6.63486 42.7112 7.22514 43.2947 7.95322 43.2947H23.1363C23.094 43.99 23.0832 44.4354 23.0832 45.0009C23.0832 45.6475 23.124 46.2498 23.1792 46.9451H14.0827C13.3546 46.9451 12.7644 47.5287 12.7644 48.2488C12.7644 48.969 13.3546 49.5525 14.0827 49.5525H23.5649C23.7865 50.5955 24.0834 51.6385 24.4506 52.6814H20.8855C20.1574 52.6814 19.5671 53.265 19.5671 53.9852C19.5671 54.7053 20.1574 55.2889 20.8855 55.2889H25.6154C29.3548 62.4158 36.8671 67.2222 45.5064 67.2222C49.7663 67.2222 53.9111 66.0222 57.4926 63.7766C58.1075 63.391 58.2899 62.579 57.9001 61.9708C57.5102 61.3629 56.6958 61.1792 56.0807 61.5648C52.9223 63.5452 49.2657 64.5904 45.5066 64.5904C34.6024 64.5904 25.7312 55.817 25.7312 45.0341C25.7312 34.2512 34.6024 25.478 45.5066 25.478C56.4108 25.478 65.282 34.2505 65.282 45.0335C65.282 49.9678 63.4184 54.6798 60.0344 58.3015C59.5403 58.8303 59.5731 59.6551 60.1079 60.1439C60.6426 60.6327 61.4769 60.625 61.9708 60.0963C63.3421 58.6288 64.4917 57.0277 65.4047 55.2894H70.1255C70.8536 55.2894 71.4438 54.7059 71.4438 53.9857C71.4438 53.2655 70.8536 52.682 70.1255 52.682H66.5659C66.934 51.639 67.2282 50.596 67.4478 49.5531H76.9282C77.6563 49.5531 78.2466 48.9695 78.2466 48.2494C78.2466 47.5292 77.6563 46.9456 76.9282 46.9456H67.8338C67.8894 46.2503 67.9187 45.6426 67.9187 44.9979C67.9187 44.4337 67.8969 43.9906 67.8549 43.2953H83.0577C83.7858 43.2953 84.3761 42.7117 84.3761 41.9915C84.3761 41.2714 83.7858 40.6878 83.0577 40.6878H67.4968C67.2504 39.471 66.899 38.2542 66.4523 37.2113H89.187C89.9151 37.2113 90.5054 36.6277 90.5054 35.9076C90.5054 35.1874 89.9151 34.6033 89.187 34.6033Z" fill="#DBDBDB"/>
</g>
<defs>
<clipPath id="clip0">
<rect width="90" height="89" fill="white" transform="translate(0.505371 0.57666)"/>
</clipPath>
</defs>
</svg>
