<svg width="88" height="88" viewBox="0 0 88 88" fill="none" xmlns="http://www.w3.org/2000/svg">
<g clip-path="url(#clip0)">
<path d="M44.0054 20.7974C19.9815 20.7974 0.505371 31.2205 0.505371 44.0775C0.505371 56.9345 19.9815 67.356 44.0054 67.356C68.0293 67.356 87.5054 56.9347 87.5054 44.0775C87.5054 31.2204 68.0293 20.7974 44.0054 20.7974ZM72.2848 55.9134C66.3734 59.0784 58.8462 61.1154 50.624 61.827C49.3373 61.9389 48.0332 62.0177 46.7168 62.0614C45.8188 62.0947 44.9155 62.1103 44.0054 62.1103C35.2423 62.1103 26.9607 60.6537 20.1565 57.9576C19.0904 57.5362 18.0593 57.0833 17.0704 56.6007C16.6135 56.377 16.1654 56.1479 15.726 55.9136C9.39093 52.5231 5.75681 48.2095 5.75681 44.0777C5.75681 39.9459 9.39093 35.6304 15.726 32.2401C21.3679 29.2221 28.4801 27.227 36.2646 26.4332C37.532 26.302 38.8168 26.2058 40.1157 26.1411C41.3988 26.0763 42.6977 26.0432 44.0054 26.0432C52.539 26.0432 60.6159 27.4264 67.3168 29.9862C68.3513 30.3815 69.3509 30.8046 70.3154 31.2557C70.9893 31.5704 71.6476 31.8992 72.2848 32.2401C78.6198 35.6305 82.2539 39.9459 82.2539 44.0777C82.2539 48.2093 78.6198 52.523 72.2848 55.9134Z" fill="#EAEAEA"/>
<path d="M44.0054 20.7974C43.1235 20.7974 42.2486 20.8132 41.3796 20.8409C64.1806 21.5676 82.2538 31.6924 82.2538 44.0777C82.2538 56.4629 64.1806 66.5859 41.3796 67.3126C42.2486 67.3402 43.1235 67.356 44.0054 67.356C68.0293 67.356 87.5054 56.9347 87.5054 44.0775C87.5054 31.2204 68.0293 20.7974 44.0054 20.7974Z" fill="#DBDBDB"/>
<path d="M70.3153 31.2556C64.8187 40.7607 54.8479 55.6042 50.6239 61.8273C49.3373 61.9391 48.0331 62.0179 46.7168 62.0616C48.5915 56.7075 51.5201 45.1479 41.8539 45.1479C32.4556 45.1479 23.8903 53.6528 20.1564 57.9578C19.0903 57.5364 18.0593 57.0835 17.0703 56.601C24.6606 42.1493 32.6708 31.1212 36.2645 26.4332C37.532 26.302 38.8167 26.2059 40.1156 26.1411C37.9484 31.6456 36.0545 40.3323 45.6823 40.3323C55.2681 40.3323 63.2136 34.0236 67.3167 29.9861C68.3514 30.3813 69.3509 30.8045 70.3153 31.2556Z" fill="#EAEAEA"/>
<path d="M67.3168 29.9858C66.5903 30.7005 65.7414 31.4869 64.7865 32.2964C59.9722 40.4829 52.3325 51.997 47.6983 58.8754C47.3854 60.0586 47.0359 61.15 46.7168 62.0611C48.0332 62.0175 49.3373 61.9388 50.624 61.8268C54.8479 55.6038 64.8187 40.7602 70.3154 31.2552C69.3509 30.804 68.3514 30.3809 67.3168 29.9858Z" fill="#DBDBDB"/>
</g>
<defs>
<clipPath id="clip0">
<rect width="87" height="87" fill="white" transform="translate(0.505371 0.57666)"/>
</clipPath>
</defs>
</svg>
