<svg id="Layer_1" data-name="Layer 1" xmlns="http://www.w3.org/2000/svg" xmlns:xlink="http://www.w3.org/1999/xlink" viewBox="0 0 344.8 310.38"><defs><style>.cls-1,.cls-3{fill:#277eff;}.cls-1{opacity:0.18;isolation:isolate;}.cls-2{fill:url(#Dégradé_sans_nom);}.cls-4{fill:#505365;}.cls-5{fill:#ec9c7d;}.cls-6{fill:#2f3554;}.cls-7{fill:#fff;}.cls-8{fill:#d68369;}.cls-9{fill:#dc9bd5;}.cls-10{fill:url(#Dégradé_sans_nom_2);}.cls-11{fill:url(#Dégradé_sans_nom_3);}.cls-12{fill:#d8dae1;}.cls-13{fill:#4c506d;}.cls-14{fill:url(#Dégradé_sans_nom_4);}.cls-15{fill:#3e3e54;}.cls-16{fill:url(#Dégradé_sans_nom_5);}.cls-17{fill:url(#Dégradé_sans_nom_6);}.cls-18{fill:#dd8049;}.cls-19{fill:url(#Dégradé_sans_nom_7);}.cls-20{fill:url(#Dégradé_sans_nom_8);}.cls-21{fill:url(#Dégradé_sans_nom_9);}.cls-22{fill:url(#Dégradé_sans_nom_10);}.cls-23{fill:url(#Dégradé_sans_nom_11);}.cls-24{fill:url(#Dégradé_sans_nom_12);}.cls-25{fill:url(#Dégradé_sans_nom_13);}.cls-26{fill:url(#Dégradé_sans_nom_14);}.cls-27{fill:#d1d1d1;}</style><linearGradient id="Dégradé_sans_nom" x1="209.5" y1="763.37" x2="203.59" y2="1015.08" gradientTransform="translate(-38.7 -738.2)" gradientUnits="userSpaceOnUse"><stop offset="0.01"/><stop offset="0.08" stop-opacity="0.69"/><stop offset="0.21" stop-opacity="0.32"/><stop offset="1" stop-opacity="0"/></linearGradient><linearGradient id="Dégradé_sans_nom_2" x1="-4531.44" y1="-360.97" x2="-4412.25" y2="-355.7" gradientTransform="translate(-4284.51 -167.19) rotate(180)" xlink:href="#Dégradé_sans_nom"/><linearGradient id="Dégradé_sans_nom_3" x1="173.97" y1="899.08" x2="108.65" y2="878.52" xlink:href="#Dégradé_sans_nom"/><linearGradient id="Dégradé_sans_nom_4" x1="-2317.12" y1="908.26" x2="-2305.16" y2="908.26" gradientTransform="matrix(-1, 0, 0, 1, -2159.63, -738.2)" gradientUnits="userSpaceOnUse"><stop offset="0" stop-color="#e5c5d5"/><stop offset="0.42" stop-color="#ead4d1"/><stop offset="1" stop-color="#f0e9cb"/></linearGradient><linearGradient id="Dégradé_sans_nom_5" x1="486.99" y1="910.54" x2="509.86" y2="977.73" gradientTransform="translate(-319.73 -738.2)" gradientUnits="userSpaceOnUse"><stop offset="0" stop-opacity="0"/><stop offset="0.99"/></linearGradient><linearGradient id="Dégradé_sans_nom_6" x1="-902.02" y1="-1091.59" x2="-889.1" y2="-1091.59" gradientTransform="matrix(1, 0, 0, -1, 1073.34, -941.67)" xlink:href="#Dégradé_sans_nom_4"/><linearGradient id="Dégradé_sans_nom_7" x1="-3527.85" y1="961.07" x2="-3462.34" y2="895.56" gradientTransform="matrix(-1, 0, 0, 1, -3297.93, -738.2)" xlink:href="#Dégradé_sans_nom"/><linearGradient id="Dégradé_sans_nom_8" x1="211.86" y1="931.66" x2="261.87" y2="931.66" xlink:href="#Dégradé_sans_nom"/><linearGradient id="Dégradé_sans_nom_9" x1="174.2" y1="912.37" x2="183.57" y2="912.37" gradientTransform="translate(-38.7 -738.2)" xlink:href="#Dégradé_sans_nom_4"/><linearGradient id="Dégradé_sans_nom_10" x1="-3428.55" y1="915.6" x2="-3408.4" y2="974.8" gradientTransform="matrix(-1, 0, 0, 1, -3292.31, -738.2)" xlink:href="#Dégradé_sans_nom_4"/><linearGradient id="Dégradé_sans_nom_11" x1="164.45" y1="947.51" x2="185.62" y2="971.51" gradientTransform="translate(-38.7 -738.2)" xlink:href="#Dégradé_sans_nom_4"/><linearGradient id="Dégradé_sans_nom_12" x1="139.63" y1="947.52" x2="175.14" y2="924.01" xlink:href="#Dégradé_sans_nom"/><linearGradient id="Dégradé_sans_nom_13" x1="-4808.06" y1="-1091.6" x2="-4797.35" y2="-1091.6" gradientTransform="translate(-4685.38 -941.67) rotate(180)" xlink:href="#Dégradé_sans_nom_4"/><linearGradient id="Dégradé_sans_nom_14" x1="387.38" y1="949.74" x2="442.92" y2="894.2" gradientTransform="translate(-314.11 -738.2)" xlink:href="#Dégradé_sans_nom"/></defs><path class="cls-1" d="M337.89,211.06c-2.56,10.08-7,20.15-10.89,29.13-6.48,14.87-14.44,29.64-26.9,40-24.64,20.53-59.94,19.32-91.7,23.76-39.54,5.53-80.48,11.61-119.62-1-28.17-9.11-54-29-64.39-56.76-5.08-13.54-6.31-28.18-7.5-42.6-1.28-15.52-2.11-30.34-6.25-45.22-4.43-15.92-9-32.5-10.33-49-2.34-30,8.74-60.91,30.25-81.9s53.2-31.33,82.8-26.15c22.09,3.87,41.88,15.6,61.37,26.7C188,35.57,202,43.1,217.18,43.69c20.08.77,39.36-10.69,59.36-8.76,24.74,2.39,42.88,24.3,54.45,46.31a134.7,134.7,0,0,1,9.31,21.42,95.83,95.83,0,0,1,2.84,46.77c-3,16-2.64,31-3.1,47.4A65.81,65.81,0,0,1,337.89,211.06Z" transform="translate(0 0)"/><ellipse class="cls-2" cx="165.98" cy="230.5" rx="105.31" ry="20.47"/><path class="cls-3" d="M238.22,191.48l9.16,34.4a1.32,1.32,0,0,1-.95,1.61h0a.86.86,0,0,1-.32,0h0a1.3,1.3,0,0,1-1.27-1l-9.17-34.39a1.33,1.33,0,0,1,1-1.62h0a1.31,1.31,0,0,1,1.59.92Z" transform="translate(0 0)"/><path class="cls-3" d="M221.3,191.47l-6.76,34.16a1.41,1.41,0,0,0,1.16,1.62h.22a1.23,1.23,0,0,0,1.21-1l6.77-34.15a1.41,1.41,0,0,0-1.06-1.61h0a1.24,1.24,0,0,0-1.52.85A.9.9,0,0,0,221.3,191.47Z" transform="translate(0 0)"/><path class="cls-3" d="M232.08,191.61,238,225.88a1.45,1.45,0,0,1-1.23,1.64h-.19a1.18,1.18,0,0,1-1.18-1l-5.9-34.27a1.46,1.46,0,0,1,1.1-1.61h0a1.19,1.19,0,0,1,1.48.8A.85.85,0,0,1,232.08,191.61Z" transform="translate(0 0)"/><path class="cls-3" d="M214.65,191.8l-12,34.12a1.21,1.21,0,0,0,.68,1.56,1.38,1.38,0,0,0,.45.08h0a1.44,1.44,0,0,0,1.35-1l12-34.11a1.19,1.19,0,0,0-.66-1.55h-.15A1.44,1.44,0,0,0,214.65,191.8Z" transform="translate(0 0)"/><path class="cls-4" d="M219.77,165.39c3-5.29,7.07-10.52,12.89-12.27,3.59-1.09,7.46-.71,11.16-.08a21.33,21.33,0,0,1,7.92,2.61,8.74,8.74,0,0,1,4.35,6.79,13.38,13.38,0,0,1-1,4.71l-5.48,15.77c-.72,2.07-1.5,4.24-3.15,5.69A12.88,12.88,0,0,1,240.9,191c-6.53,1.63-13.11,3.26-19.83,3.46s-13.68-1.16-19.17-5c-2-1.38-3.84-3.81-2.78-6,.83-1.65,3-2.09,4.84-2,4.85.2,6.26-.36,9.12-4.33C215.69,173.44,217.56,169.3,219.77,165.39Z" transform="translate(0 0)"/><path class="cls-5" d="M216,160a9,9,0,0,1-2.54,2.82L200.6,173.55c-1.19,1-2.51,2.29-2.27,3.83a.73.73,0,0,0,.18.42.89.89,0,0,0,.67.18,18.1,18.1,0,0,0,3.88-.51c1.34-.33,2.84-1,3.11-2.39.07-.38,0-.77.1-1.15A3.46,3.46,0,0,1,208,171.8c1-.67,1.89-1.44,2.85-2.12,1.89-1.36,3.85-2.63,5.86-3.81,1.41-.83,3.61-1.8,4.45-3.29s.14-3.69-.37-5.21c-.34-1-.77-1.14-1.78-1.28s-2.05-.45-2.39.67S216.49,159,216,160Z" transform="translate(0 0)"/><path class="cls-6" d="M237.53,153.26c-2.22,1.28-4.09,0-4.67-2.34-.24-1-.34-2.08-.67-3.11a15.4,15.4,0,0,0-2-3.59,10.1,10.1,0,0,1-1.77-3.71,3.9,3.9,0,0,1,1.2-3.76,1.19,1.19,0,0,1,.88-.31c.51.05.78.63.9,1.15a6.85,6.85,0,0,0,.24,1.55,3,3,0,0,0,1.83,1.39c1.73.71,3.59,1.34,4.8,2.75a6.55,6.55,0,0,1,1.38,4.61C239.55,149.52,239.07,152.39,237.53,153.26Z" transform="translate(0 0)"/><path class="cls-7" d="M214.6,164l-.71,3.27a3.7,3.7,0,0,0-.13,1.48,3.49,3.49,0,0,0,.93,1.61c3.32,3.8,6.24,4.12,11.15,3.71a34.68,34.68,0,0,0,8.43-1.71c-.4-4.19,0-9.92.78-11.69,2.06-4.75,4.6-11,1.65-14.64-2.39-2.9-6.75-2.62-9.41-2.54-2,0-4.31-.72-6.15.23s-3.17,3.19-4,4.83a29.5,29.5,0,0,0-1.35,3.11,1.12,1.12,0,0,0-.1.4.94.94,0,0,0,.23.52l1.19,1.74C215.42,156.74,215.23,161.09,214.6,164Z" transform="translate(0 0)"/><path class="cls-6" d="M225.66,126.6a2.35,2.35,0,0,0-.8.59,9.59,9.59,0,0,0-1.18,3l-1.55,4.4s-5.08.09-4-5c.55-2.68,2.24-5.18,5.18-5.44a7.91,7.91,0,0,1,2,.28,6.57,6.57,0,0,0,2.34,0c.3-.06.66-.13.88.08a.6.6,0,0,1,.06.72,1.53,1.53,0,0,1-.58.49C227.3,126.07,226.4,126.23,225.66,126.6Z" transform="translate(0 0)"/><path class="cls-5" d="M229.81,125.87s-8.5-2.39-9.89,3.57a15.83,15.83,0,0,0-.43,3.76v1.29c.39,3.9,2.34,6.86,5.5,6.59C230.56,140.63,236.46,128.85,229.81,125.87Z" transform="translate(0 0)"/><path class="cls-8" d="M228.81,137a.55.55,0,0,0,.77,0h0a7,7,0,0,0-1.13,3.12c-.43,3.21,1.13,3.35,1.13,3.35-5.79,3.24-6.65,1-6.65,1a3.41,3.41,0,0,0,.21-3.62c2.63.72,5-2.38,5.45-4.14A.58.58,0,0,0,228.81,137Z" transform="translate(0 0)"/><path class="cls-6" d="M223.71,125c.45-.16.88-.08,1.33-.2a6.23,6.23,0,0,0,1.39-.75,6.42,6.42,0,0,1,3.72-.49,7,7,0,0,1,2.84.78,5.41,5.41,0,0,1,2.47,4,8.56,8.56,0,0,1-1,4.73,3.13,3.13,0,0,0-.32.78c-.19,1.11,1,1.91,1.46,3a12.66,12.66,0,0,1,.36,2.3c.35,1.61,1.8,2.71,2.77,4a5.45,5.45,0,0,1,1.13,3.89c-2.87-1.1-6.13-.71-9.07-1.63a4.57,4.57,0,0,1-1.77-.93A4.17,4.17,0,0,1,228,141.1a19.46,19.46,0,0,1,.48-2.62c.1-.5,0-1.4.51-1.73a6.06,6.06,0,0,1,.78-.45,2,2,0,0,0,1-1.75.86.86,0,0,0-.35-.78.77.77,0,0,0-.85.15c-.33.29-.29.64-.72.72a2.32,2.32,0,0,1-1.3-.4c-2.81-1.56-3.89-5.67-4.74-8.57C223.13,125.6,223.3,125.16,223.71,125Z" transform="translate(0 0)"/><path class="cls-5" d="M230.37,155.27c2.34-6.79,3.9-10.13,6.28-9.28,0,0,3.12,1.55,1.35,7.79-2,7-7.22,13.55-7.22,13.55L228.35,162S229.14,159,230.37,155.27Z" transform="translate(0 0)"/><path class="cls-9" d="M205.62,180.16c.15-.18.63-.78,1.35-1.56a1.07,1.07,0,0,0-.18.19C206.38,179.23,206,179.68,205.62,180.16Z" transform="translate(0 0)"/><path class="cls-3" d="M233.92,170.34c-3.21.19-6.59.41-9.89.89,0,0-13,10.91-14.6,13.55-3.83,6.13-7.55,4.39-2,13.35l11.1,17.92c1.88.63,3.89-1,4.44-3a10.46,10.46,0,0,0-.58-5.88c-1.14-3.86-2.25-7.73-3.35-11.58a3.48,3.48,0,0,1,0-2.65,3.52,3.52,0,0,1,1.2-1c1.32-.78,2.22-2.63,3.68-3.08a24.29,24.29,0,0,0,7-3.11,9.87,9.87,0,0,0,4.26-6.18C235.72,176.54,234.3,173.47,233.92,170.34Z" transform="translate(0 0)"/><path class="cls-3" d="M224,171.26c-2.66.33-7-.89-7-.89-3.79,1.69-7.89,5.89-10,8.25h0c-.73.78-1.21,1.38-1.36,1.55h0l-.21.27c-2.34,3.11-3.81,6.78-5.26,10.4l-7.31,18.21a4.59,4.59,0,0,0-.44,1.82c.11,2.25,3.12,2.85,5.37,2.81l9.71-15.59s-1.84-5.56,2-13.34c1.37-2.79,14.62-13.55,14.62-13.55Z" transform="translate(0 0)"/><path class="cls-10" d="M224,171.26c-2.66.33-7-.89-7-.89-3.79,1.69-7.89,5.89-10,8.25h0c-.73.78-1.21,1.38-1.36,1.55h0l-.21.27c-2.34,3.11-3.81,6.78-5.26,10.4l-7.31,18.21a4.59,4.59,0,0,0-.44,1.82c.11,2.25,3.12,2.85,5.37,2.81l9.71-15.59s-1.84-5.56,2-13.34c1.37-2.79,14.62-13.55,14.62-13.55Z" transform="translate(0 0)"/><path class="cls-5" d="M218.73,217.58c.22-.55.46-1.09.73-1.62a10.3,10.3,0,0,1,1.56-1.23c.23-.2,1.56-1.33,1.48-1.65a18.29,18.29,0,0,0,1.19,3.11,3.3,3.3,0,0,1,.56,2,3,3,0,0,1-1.19,1.56c-2.08,1.71-4.55,3.33-7.22,3a.55.55,0,0,1-.44-.18.46.46,0,0,1-.1-.32c0-1.19,1.11-2,2-2.78A7.31,7.31,0,0,0,218.73,217.58Z" transform="translate(0 0)"/><path class="cls-4" d="M223.8,217.09c-.5.16-.93.89-1.3,1.26a15.31,15.31,0,0,1-1.56,1.34,2.15,2.15,0,0,1-1.64.56c-.58-.12-1-.64-1.56-.82a1.75,1.75,0,0,0-1.49.26,4.07,4.07,0,0,0-1.1,1.09,7.47,7.47,0,0,0-1.51,3.78.58.58,0,0,0,.09.44.56.56,0,0,0,.26.17,3.35,3.35,0,0,0,2.54-.46,39.86,39.86,0,0,0,5.33-2.91,14.6,14.6,0,0,1,2.56-1.56.74.74,0,0,0,.44-.31.68.68,0,0,0,.06-.4C224.86,218.8,224.92,216.64,223.8,217.09Z" transform="translate(0 0)"/><path class="cls-7" d="M238.94,148c-.58-1.56-3.53-5.13-5.53-3.67a7,7,0,0,0-2.59,3.85c-.19.71-.26,1.47-.44,2.2-.24.9-.62,1.76-.78,2.67a10.9,10.9,0,0,0,0,2.91q2.85-.41,5.68-.84l2.84-.45c.53-.08,1.61.13,1.86-.42a1.71,1.71,0,0,0,.06-1l-.23-1.61a17.53,17.53,0,0,0-.78-3.5A.74.74,0,0,0,238.94,148Z" transform="translate(0 0)"/><path class="cls-5" d="M210.46,160.53l1.39-1.6s14.81,2.33,17,3.18,2,5.21,2,5.21C225,168.92,210.46,160.53,210.46,160.53Z" transform="translate(0 0)"/><path class="cls-5" d="M213.12,161a.93.93,0,0,1-.29.46,1.48,1.48,0,0,1-.5.17c-1.05.25-1.86,1.08-2.85,1.47a4.68,4.68,0,0,1-3.17.55,9.47,9.47,0,0,1-2.71-1.32,5.07,5.07,0,0,1-1.37-1.11,1.72,1.72,0,0,1-.32-1.66c.32-.8,1.31-1.06,2.17-1.18a17.08,17.08,0,0,1,3.5-.15c1,.07,2,.38,3,.44C212,158.72,213.65,159.23,213.12,161Z" transform="translate(0 0)"/><path class="cls-3" d="M117.15,175.8,108,210.2a1.33,1.33,0,0,0,.93,1.62h0a1.82,1.82,0,0,0,.33,0h0a1.32,1.32,0,0,0,1.27-1l9.17-34.4a1.31,1.31,0,0,0-.94-1.6h-.06A1.31,1.31,0,0,0,117.15,175.8Z" transform="translate(0 0)"/><path class="cls-3" d="M134.11,175.8,140.87,210a1.41,1.41,0,0,1-1.16,1.62h-.22a1.23,1.23,0,0,1-1.21-1l-6.77-34.15a1.4,1.4,0,0,1,1.06-1.6h0a1.21,1.21,0,0,1,1.51.83Z" transform="translate(0 0)"/><path class="cls-3" d="M123.3,175.94l-5.88,34.27a1.45,1.45,0,0,0,1.23,1.64h.19a1.18,1.18,0,0,0,1.18-1l5.89-34.27a1.44,1.44,0,0,0-1.1-1.6h0a1.2,1.2,0,0,0-1.5.77v.19Z" transform="translate(0 0)"/><path class="cls-3" d="M140.72,176.1l12,34.12a1.21,1.21,0,0,1-.68,1.56,1.38,1.38,0,0,1-.45.08h0a1.44,1.44,0,0,1-1.35-1l-12-34.12a1.19,1.19,0,0,1,.66-1.55h.15A1.44,1.44,0,0,1,140.72,176.1Z" transform="translate(0 0)"/><path class="cls-4" d="M135.6,149.72c-3-5.29-7.07-10.52-12.89-12.28-3.6-1.08-7.46-.71-11.16-.07a21.31,21.31,0,0,0-7.92,2.6,8.74,8.74,0,0,0-4.33,6.83,13.11,13.11,0,0,0,1,4.71l5.48,15.77c.72,2.07,1.5,4.24,3.15,5.69a12.6,12.6,0,0,0,5.56,2.37c6.52,1.63,13.11,3.27,19.83,3.47s13.68-1.17,19.17-5.06c1.95-1.38,3.84-3.81,2.77-5.94-.82-1.66-3-2.1-4.83-2-4.85.2-6.26-.36-9.12-4.32C139.68,157.8,137.81,153.62,135.6,149.72Z" transform="translate(0 0)"/><path class="cls-11" d="M113.41,143.12c-5.79,5.39-7,14.79-3.45,21.85,2.62,5.17,8,9.24,13.82,8.91a5,5,0,0,0,2.38-.63c1.6-1,1.93-3.15,2.1-5a33.47,33.47,0,0,0,0-9.27c-.53-2.8-1.78-5.45-2.1-8.29-.2-1.8,0-3.62-.11-5.43-.14-2.8-.76-5.71-3.92-5.76A12.86,12.86,0,0,0,113.41,143.12Z" transform="translate(0 0)"/><path class="cls-7" d="M123.92,149.53a15.6,15.6,0,0,1,.06,2.9c-.17,1.15-.2,2.33-.35,3.49A38.68,38.68,0,0,1,122,162.8a3.54,3.54,0,0,0-.19,2.71,3.4,3.4,0,0,0,1.41,1.19c1.07.61,2,1.4,3,2a24.48,24.48,0,0,0,3.7,1.45c3.72,1.22,10.78,3.07,12.25-2.22,1.68-6,3.09-11.86,4.18-18a40,40,0,0,0,1.07-6.43c0-1.76-1.83-2.38-3.42-2.72l-.3-.06-.92-.18a45,45,0,0,1-6.23-1.84c-2.3-.83-5.93-2.27-8.92-.83a4.42,4.42,0,0,0-.6.34C123.87,140.18,123.64,145.07,123.92,149.53Z" transform="translate(0 0)"/><path class="cls-7" d="M155.64,159.5a31.32,31.32,0,0,0-2.61,2.28c-1.19,1.47-1.76,1.69-3.59.76a9.17,9.17,0,0,1-4-3.94,39.31,39.31,0,0,1-2.49-6.09,4.11,4.11,0,0,1,0-3.19c.47-1.42,1-2.83,1.58-4.21.43-1,2.92,1.56,3.18,1.89,1.49,1.85,3,3.67,4.29,5.63a43.25,43.25,0,0,1,7.17-2.52,1.4,1.4,0,0,1,.76,0,1.25,1.25,0,0,1,.58.66l2.3,4.31C162.47,154.28,158.43,157.25,155.64,159.5Z" transform="translate(0 0)"/><path class="cls-12" d="M131.74,151.55a8.33,8.33,0,0,0,1.2,3c.67,1,1.84,4.4,3.4,4a5.35,5.35,0,0,1-2.3.43c1.53,2,3.91,3.24,6.14,4.46a4.89,4.89,0,0,1,1.57,1.17,1.74,1.74,0,0,1,.29,1.83c-.52,1-2,.89-3.1.6-2.73-.71-5.44-1.53-8.2-2.07-2.35-.46-5-.67-7,.68a1,1,0,0,1-.52.24.66.66,0,0,1-.61-.58,2,2,0,0,1,.14-.9,26,26,0,0,0,1.11-6.89c0-.94.28-1.83.3-2.73,0-1.12-.22-2.26-.24-3.38a30.43,30.43,0,0,1,.66-6.73c.32-1.55,1-3.32,2.56-3.68a3,3,0,0,1,3,1.31,6.87,6.87,0,0,1,1,3.23C131.24,147.55,131.44,149.56,131.74,151.55Z" transform="translate(0 0)"/><path class="cls-7" d="M127.66,137.8c3-1.44,6.62,0,8.92.83a43.13,43.13,0,0,0,6.22,1.84c.31.05.62.11.92.18-1-.91-2.9-1.13-4.23-1.52-2-.58-4-1.1-6.05-1.57S129.3,136.8,127.66,137.8Z" transform="translate(0 0)"/><path class="cls-8" d="M136.23,132.31a4.38,4.38,0,0,0,5.29,2.73s-1.07,3.07.17,5c.23.36-1.37.68-1.46.69a6.57,6.57,0,0,1-2.62-.61,18.26,18.26,0,0,0-4-1.4,2.89,2.89,0,0,0,1.48-1.48,6.94,6.94,0,0,0,.28-4.54.59.59,0,0,0,.67-.06A.54.54,0,0,0,136.23,132.31Z" transform="translate(0 0)"/><path class="cls-5" d="M138.94,136.32c3,.94,5.46-1.49,6.64-5.11.12-.4.23-.81.32-1.23a15.81,15.81,0,0,0,.4-3.69c-.06-6-8.66-5.53-8.66-5.53C130.65,122.2,133.76,134.7,138.94,136.32Z" transform="translate(0 0)"/><path class="cls-6" d="M143.64,119.9a4.59,4.59,0,0,1,2.66,1.9,11,11,0,0,0,.9,1.52c.53.66,1.32,1.14,1.58,1.94a6,6,0,0,1-3.92-.78,1.12,1.12,0,0,1-1,.52,3.24,3.24,0,0,1-1.11-.23,1,1,0,0,0-.62-.06,1.07,1.07,0,0,0-.41.28,2.77,2.77,0,0,1-2.61.5c-.53-.17-1.06-.51-1.56-.35a1.64,1.64,0,0,0-.88,1.51c0,.37.17.72.18,1.1a3.47,3.47,0,0,1-.19,1.15,2.78,2.78,0,0,0-.72-.69,1,1,0,0,0-1,0,.92.92,0,0,0-.3.29,1.87,1.87,0,0,0,.26,2.39c-.1.37-.2.74-.28,1.12a5.82,5.82,0,0,1-1.09-1.8,11.08,11.08,0,0,0-.88-2.14,5.91,5.91,0,0,1-.65-1,5.41,5.41,0,0,0-.27-.77c-.34-.63-.81-1.25-.6-2s1.1-1.36.92-2.14a3.17,3.17,0,0,0-.12-.44,1.15,1.15,0,0,1,.15-.63,5.92,5.92,0,0,1,4.12-3,13.13,13.13,0,0,1,5.26.14c1.73.33,3.45.8,5.21,1a.38.38,0,0,1,.37.17.31.31,0,0,1,0,.19c-.08.38-.44.62-.73.88s-.55.68-.34,1" transform="translate(0 0)"/><path class="cls-6" d="M128,166.8s3.64,9.1,6.56,10,13.7,4.3,13.7,4.3L153.63,192c3,6.18,6.41,12.22,8.6,18.75a2.84,2.84,0,0,0,.57,1.12,2.88,2.88,0,0,0,2.51.44c1.83-.25,3.66-.5,5.46-.92.87-.21,1.93-.68,1.92-1.58s-1-1.33-1.76-1.61l-2.51-.87a2.62,2.62,0,0,1-2.22-2.35,27,27,0,0,1-.94-4.63c-.11-1.46-1.19-2.91-1.19-4.29l-3.19-9.2-4.86-14v-.09l-11.78-6Z" transform="translate(0 0)"/><path class="cls-13" d="M123,168.59s-.69,8.29,2.24,9.25S139,182.1,139,182.1l4.17,11.35c1.71,4.68,4,9.46,5.25,14.29a27.56,27.56,0,0,1,.44,4.16,2.26,2.26,0,0,0,.28,1.08,2.33,2.33,0,0,0,1.71.76q4.06.51,8.16.71a1.64,1.64,0,0,0,1-.14,1.34,1.34,0,0,0,.54-.83,3,3,0,0,0-.9-3c-.88-.78-2.12-1-3.11-1.6-2.14-1.37-2.32-5.2-2.91-7.54l-2.19-8.82L147.2,175.8c-.06-.26-.26-2-.52-2.1l-11.78-6S128.06,165.12,123,168.59Z" transform="translate(0 0)"/><path class="cls-6" d="M123,168.59s-.69,8.29,2.24,9.25S139,182.1,139,182.1l4.17,11.35c1.71,4.68,4,9.46,5.25,14.29a27.56,27.56,0,0,1,.44,4.16,2.26,2.26,0,0,0,.28,1.08,2.33,2.33,0,0,0,1.71.76q4.06.51,8.16.71a1.64,1.64,0,0,0,1-.14,1.34,1.34,0,0,0,.54-.83,3,3,0,0,0-.9-3c-.88-.78-2.12-1-3.11-1.6-2.14-1.37-2.32-5.2-2.91-7.54l-2.19-8.82L147.2,175.8c-.06-.26-.26-2-.52-2.1l-11.78-6S128.06,165.12,123,168.59Z" transform="translate(0 0)"/><path class="cls-7" d="M125,141.49s1.31,12.53,6,15.69,15.92-10.13,15.92-10.13l-3.59-2.91L134,148.86s-1.32-10.58-3.21-10.73S124.93,139.39,125,141.49Z" transform="translate(0 0)"/><path class="cls-5" d="M148.16,139.72a3,3,0,0,1,1.46-.75,3.14,3.14,0,0,1,1.45.26c.92.3,1.94.82,2.12,1.76a2.22,2.22,0,0,1-.85,1.93c-.55.48-1.21.82-1.77,1.3-.79.68-1.38,1.66-2.36,2a3,3,0,0,1-1.29.14c-1.45-.13-3-1.35-2.16-2.85A15,15,0,0,1,148.16,139.72Z" transform="translate(0 0)"/><path class="cls-14" d="M156.22,169.74a6.22,6.22,0,0,0-1.74-2.52,9.24,9.24,0,0,0-1.28-.68,10.59,10.59,0,0,0-1.59-.77.57.57,0,0,0-.26,0,.3.3,0,0,0-.2.33,1,1,0,0,0,.17.37,5.29,5.29,0,0,0,1,1,3.06,3.06,0,0,1-2.61,0,5.25,5.25,0,0,0-3.43-.26,1.12,1.12,0,0,0-.55.38,1.38,1.38,0,0,0,.29,1.56,9.23,9.23,0,0,0,1.25,1.25,4.87,4.87,0,0,0,1.46,1,4.78,4.78,0,0,0,.93.18l1.82.23a4.92,4.92,0,0,1,1.51.37c.91.45,2,2.53,3.09,2.13.65-.22,1.57-.89,1.45-1.66a6.48,6.48,0,0,0-.63-1.33C156.63,170.8,156.44,170.25,156.22,169.74Z" transform="translate(0 0)"/><path class="cls-15" d="M164,200a10,10,0,0,0,.79,4.11h.08c1.49,0,3,0,4.48.09a63.38,63.38,0,0,1,7.39,1c1.13.21,2.26.44,3.38.67l3.22.65c2,.4,4,.74,5.92,1a18.17,18.17,0,0,0,6.44-4.63l.56-.66c.23-.29.45-.6.66-.92a7.11,7.11,0,0,0,1.18-3,4.42,4.42,0,0,0,0-1.31,6.17,6.17,0,0,0-2.61-3.61l-.4-.29a15.28,15.28,0,0,0-9.28-2.7h-.83a28.07,28.07,0,0,0-5.22.89c-2.71.69-5.42,1.66-8.1,2.52a21.72,21.72,0,0,0-5.63,2.4,5,5,0,0,0-1.29,1.22A4.56,4.56,0,0,0,164,200Z" transform="translate(0 0)"/><path class="cls-15" d="M164.24,204.35q.52,2.7.93,5.42a125.73,125.73,0,0,1,1.27,12.71,2.77,2.77,0,0,1-.11,1.18c-.46,1.12-2,1.18-3.18,1.17s-2.78.48-2.76,1.68c0,.94,1,1.49,1.93,1.79a23.72,23.72,0,0,0,8.23,1.25,2.62,2.62,0,0,0,1-.16c1.9-.83.4-3,.2-4.32-.29-1.87.43-3.93.88-5.71,1.06-4.15,3.86-7.91,3.75-12.32a2.38,2.38,0,0,1,.29-1.63c.53-.65,2.74.4,3.44.54l3.22.65c5.77,1.12,11.1,2.41,17,1.31a2.35,2.35,0,0,0,1-.35,2.2,2.2,0,0,0,.72-1.19,10.42,10.42,0,0,0-.62-7.88c-1.44-2.85-3.74-4-6.42-5.34-3.1-1.57-5.71-2.75-9.28-2.65h-.83a28.19,28.19,0,0,0-5.24.92c-4.35,1.12-14.38,2.71-16,7.76-.53,1.59.13,2.87.45,4.42Z" transform="translate(0 0)"/><path class="cls-16" d="M164.24,204.35q.52,2.7.93,5.42a125.73,125.73,0,0,1,1.27,12.71,2.77,2.77,0,0,1-.11,1.18c-.46,1.12-2,1.18-3.18,1.17s-2.78.48-2.76,1.68c0,.94,1,1.49,1.93,1.79a23.72,23.72,0,0,0,8.23,1.25,2.62,2.62,0,0,0,1-.16c1.9-.83.4-3,.2-4.32-.29-1.87.43-3.93.88-5.71,1.06-4.15,3.86-7.91,3.75-12.32a2.38,2.38,0,0,1,.29-1.63c.53-.65,2.74.4,3.44.54l3.22.65c5.77,1.12,11.1,2.41,17,1.31a2.35,2.35,0,0,0,1-.35,2.2,2.2,0,0,0,.72-1.19,10.42,10.42,0,0,0-.62-7.88c-1.44-2.85-3.74-4-6.42-5.34-3.1-1.57-5.71-2.75-9.28-2.65h-.83a28.19,28.19,0,0,0-5.24.92c-4.35,1.12-14.38,2.71-16,7.76-.53,1.59.13,2.87.45,4.42Z" transform="translate(0 0)"/><path class="cls-15" d="M156,204.8a20.4,20.4,0,0,0-3.34,5.74c-1,2.33-7,27.31-7.26,27.26L150,239a120.25,120.25,0,0,0,13-24c1-2.43,1-2.66,3.69-3.17,2.32-.46,4.64-1,6.94-1.5a92.24,92.24,0,0,0,13.2-4.14,40.49,40.49,0,0,0,7.42-3.78,4.85,4.85,0,0,0,.9-.91c.11-.15.22-.31.32-.47a3.86,3.86,0,0,0,.56-2.22,2.52,2.52,0,0,0-.11-.61,5.33,5.33,0,0,0-2.32-2.7,10.78,10.78,0,0,0-5.49-2c-1.32-.08-2.65.19-4,.12s-2-.72-3-.88a6,6,0,0,0-2.38.21,29.26,29.26,0,0,0-5.07,2.29L164.12,200H164l-1.9.95c-2,1-4.28,2-5.86,3.62Z" transform="translate(0 0)"/><path class="cls-15" d="M138.74,236.64a5,5,0,0,0-2.35.74,1.93,1.93,0,0,0-.79,2.17,2.62,2.62,0,0,0,1.31,1.19,21.1,21.1,0,0,0,10.69,2.06,2.39,2.39,0,0,0,1.47-.4,2.55,2.55,0,0,0,.69-1.39,5.57,5.57,0,0,0,.2-3c-.6-2-2.83-1.56-4.41-1.65A36.94,36.94,0,0,0,138.74,236.64Z" transform="translate(0 0)"/><path class="cls-17" d="M172.12,148.32c-.38.48-1,1-.74,1.54.12.3.46.45.72.64a3.33,3.33,0,0,1,1.12,2.28,7.88,7.88,0,0,0,.61,2.53,1.86,1.86,0,0,0,2.14,1c.48-.19.93-.67,1.42-.51s.54.56.76.89a2.59,2.59,0,0,0,2.59.9,7.56,7.56,0,0,0,2.62-1.22,2,2,0,0,0,.82-.79,1.56,1.56,0,0,0,0-1A8,8,0,0,0,182.5,152a11.84,11.84,0,0,1-2.33-5.21c-.23-1.32-.29-2.8-1.22-3.75-1.27-1.3-4-1-5.35.16S173.3,146.8,172.12,148.32Z" transform="translate(0 0)"/><path class="cls-18" d="M173.83,142a1.65,1.65,0,0,0,.2.64c.34.56,1.3.92,1.88,1.24a2.73,2.73,0,0,1,1.29,1.56c.37,1.22-.16,2.65.34,3.84.17.23.56,0,.69-.21s.19-.58.42-.75c.39-.28.94.08,1.16.51a2.19,2.19,0,0,1-.94,2.85c.09.38.61.49,1,.4a3.85,3.85,0,0,1,1.16-.27c.91.08,1.37,1.35,2.28,1.39s1.58-1.41,2.26-2,1.91-.71,2.25-1.54c.16-.4.07-.91.4-1.19a1.62,1.62,0,0,1,.83-.23,2,2,0,0,0,1.41-1.31,3.11,3.11,0,0,0-.07-2,1.53,1.53,0,0,0-.39-.66,2.55,2.55,0,0,0-1-.39c-1.59-.45-2.72-1.81-3.91-3s-2.76-2.22-4.38-1.86a3.66,3.66,0,0,0-2.84-1.39,4,4,0,0,0-1.55.66,6.15,6.15,0,0,0-2,1.83A3.28,3.28,0,0,0,173.83,142Z" transform="translate(0 0)"/><path class="cls-7" d="M181.79,154.85a24.54,24.54,0,0,0-2.74,1.76,2.31,2.31,0,0,0-.67.72,1.1,1.1,0,0,0,0,1c.31.43.88.21,1.32,0a17.25,17.25,0,0,1,6.43-1.56.8.8,0,0,0,.76-.42,1.09,1.09,0,0,0-.18-.89C185.36,153.26,183.55,153.8,181.79,154.85Z" transform="translate(0 0)"/><path class="cls-3" d="M177.92,183.38a41.07,41.07,0,0,1-2.29-6.16c-.14-.46-.36-2.27-1.1-2.17-.39.06-1.09,1.89-1.31,2.26a27,27,0,0,1-7.49,8.16,3.23,3.23,0,0,1-1.82.77,3.43,3.43,0,0,1-2.31-1.37,66.41,66.41,0,0,1-8.17-10.57,59.3,59.3,0,0,1,4.92-3.72,11.71,11.71,0,0,0,5.69,4.7c1-2.76,1.54-6.38,3.21-8.75,1.13-1.61,2.34-3.23,3.34-4.95a5.61,5.61,0,0,1,1-1.27,5.23,5.23,0,0,1,1.92-.87,138.17,138.17,0,0,1,15.84-3.64,7.69,7.69,0,0,1,2.44-.16c2.28.34,3.78,2.49,4.93,4.49,6,10.43,10.28,22.27,9.61,34.29a6.59,6.59,0,0,1-.31,1.92,5.51,5.51,0,0,1-1.86,2.33,15.66,15.66,0,0,1-9.63,2.94c-5.1,0-11.83-1.49-15.63-5.16-2.16-2.07,0-3.32,1-5.37C181.23,188.45,179.07,185.73,177.92,183.38Z" transform="translate(0 0)"/><path class="cls-19" d="M203.3,174.94a24.47,24.47,0,0,0-1.57-4.65c-3,2.12-5.15,6.26-6.25,9.74s-2,7.15-4.23,10l-2.42-.84-.45,1.53c-.36,1.21.66,2.44.56,3.66a3.31,3.31,0,0,1-2.49,2.6,8.16,8.16,0,0,1-4.27-.3,6.56,6.56,0,0,1-2.5-1.08,2.38,2.38,0,0,1-.9-2.42,1.54,1.54,0,0,0-.67,1.76,3.49,3.49,0,0,0,1.16,1.64,19,19,0,0,0,6,3.11,22,22,0,0,0,3.07,1,31.06,31.06,0,0,0,7.32.75c1.49,0,2.39-.2,3-1.68.94-2.1,1-4.48,1.24-6.78A119,119,0,0,1,203.3,174.94Z" transform="translate(0 0)"/><path class="cls-4" d="M224.5,181.1a13.16,13.16,0,0,1-1,4.71c-.11.33-.23.66-.35,1q-2.55,7.4-5.13,14.78c-.72,2.07-1.5,4.24-3.15,5.69a12.88,12.88,0,0,1-5.56,2.37c-6.52,1.63-13.11,3.27-19.83,3.46a35.75,35.75,0,0,1-12.9-1.84h0a25.92,25.92,0,0,1-6.26-3.21c-2-1.38-3.84-3.81-2.77-5.95.82-1.65,3-2.09,4.83-2,4.85.2,6.26-.36,9.12-4.33,2.63-3.65,4.5-7.79,6.71-11.7,3-5.29,7.07-10.52,12.89-12.27,3.6-1.09,7.46-.71,11.16-.08a21.33,21.33,0,0,1,7.92,2.61A8.74,8.74,0,0,1,224.5,181.1Z" transform="translate(0 0)"/><path class="cls-20" d="M223.13,186.8q-2.55,7.39-5.13,14.78c-.72,2.07-1.5,4.24-3.15,5.69a12.88,12.88,0,0,1-5.56,2.37c-6.52,1.63-13.11,3.27-19.83,3.46a35.75,35.75,0,0,1-12.9-1.84h0a26.9,26.9,0,0,1-2.58-2.65c-.55-.67-1.1-1.6-.65-2.33s1.31-.71,2.08-.72a19.12,19.12,0,0,0,15.7-9.06,49.7,49.7,0,0,0,3.34-7.54c2.15-5.34,5.15-10.67,10.07-13.69a8.49,8.49,0,0,1,5.17-1.48,10.52,10.52,0,0,1,3.24,1c4.16,1.86,9.79,5.43,10.22,10.53A8.13,8.13,0,0,1,223.13,186.8Z" transform="translate(0 0)"/><path class="cls-3" d="M206.64,210.14l9.15,34.4a1.31,1.31,0,0,1-1,1.6h0a.86.86,0,0,1-.32,0h0a1.32,1.32,0,0,1-1.27-1l-9.11-34.35a1.31,1.31,0,0,1,.92-1.61h0a1.33,1.33,0,0,1,1.63.94Z" transform="translate(0 0)"/><path class="cls-3" d="M189.68,210.13l-6.77,34.16a1.41,1.41,0,0,0,1.16,1.62h.23a1.2,1.2,0,0,0,1.2-1l6.8-34.11a1.41,1.41,0,0,0-1.06-1.6h0a1.22,1.22,0,0,0-1.53.81h0Z" transform="translate(0 0)"/><path class="cls-3" d="M200.5,210.27l5.88,34.28a1.46,1.46,0,0,1-1.27,1.63H205a1.18,1.18,0,0,1-1.18-1l-5.89-34.27a1.44,1.44,0,0,1,1.1-1.6h0a1.2,1.2,0,0,1,1.49.81Z" transform="translate(0 0)"/><path class="cls-3" d="M183.06,210.43l-12,34.12a1.21,1.21,0,0,0,.68,1.56,1.44,1.44,0,0,0,.46.08h0a1.44,1.44,0,0,0,1.35-1l12-34.11a1.21,1.21,0,0,0-.68-1.56h-.13A1.43,1.43,0,0,0,183.06,210.43Z" transform="translate(0 0)"/><path class="cls-3" d="M227.44,103.05c-2.63,0-6.51-1.8-8.39,1a11.63,11.63,0,0,0-.82,1.66c-1.55,3.27-5,5.16-8.31,6.61,2-2.49,3.76-5.49,3.44-8.66-.33-3.35-4.3-3.44-6.86-4.53A32.84,32.84,0,0,1,199,94.8c-3.59-2.84-6.59-6.87-6.59-11.62,0-11,15.68-19.9,35-19.9s35,8.91,35,19.9S246.78,103.05,227.44,103.05Z" transform="translate(0 0)"/><path class="cls-3" d="M122,104.53a41.75,41.75,0,0,1-5.48,0c-2.21-.3-4.34-.81-3.83,2.66.6,4,4.23,6.9,5.83,10.65C111,116,105.34,111.58,100.12,106c-2.32-2.49-6.3-1.46-9.57-1.46H84.93a24.26,24.26,0,0,1,0-48.52H122a24.26,24.26,0,1,1,0,48.52Z" transform="translate(0 0)"/><path class="cls-5" d="M162.14,149.5a1.62,1.62,0,0,1,.39-.91c.3-.25.75-.17,1.14-.15,1.67.07,3-1.3,4.37-2.24a.4.4,0,0,1,.23-.08c.09,0,.15.11.2.19.76,1.4.19,3.15-.62,4.51s-1.86,2.48-3.31,2.54a12.41,12.41,0,0,0-2.72-.18c-.58.13-1,.49-1.27-.21C160,151.72,161.86,150.6,162.14,149.5Z" transform="translate(0 0)"/><path class="cls-21" d="M139.19,171.41a4.75,4.75,0,0,1-.31,1.75,8.7,8.7,0,0,1,3.22-1l1.58-.29a1.16,1.16,0,0,1,.93.09.92.92,0,0,1,.23.92,3.59,3.59,0,0,1-.9,1.51,15.7,15.7,0,0,1-1.6,1.56,5,5,0,0,1-1.27.8c-1.11.4-2.34,0-3.52.1a4.31,4.31,0,0,1-.88,0,1.37,1.37,0,0,1-1.08-.9c-.42-1.23.74-1.69,1.39-2.42S138.17,171.72,139.19,171.41Z" transform="translate(0 0)"/><path class="cls-15" d="M129.15,192.18a8.34,8.34,0,0,1-.67,3.48h-.07c-1.26,0-2.53,0-3.79.08a52.84,52.84,0,0,0-6.27.88c-1,.17-1.91.37-2.86.56l-2.74.56c-1.73.34-3.4.63-5,.86a15.33,15.33,0,0,1-5.46-3.93c-.17-.18-.32-.37-.48-.56s-.38-.51-.56-.78a5.9,5.9,0,0,1-1-2.54,3.44,3.44,0,0,1,0-1.11,5.25,5.25,0,0,1,2.22-3l.34-.25a13,13,0,0,1,7.87-2.29h.7a24.58,24.58,0,0,1,4.43.76c2.29.58,4.59,1.41,6.86,2.13a18.35,18.35,0,0,1,4.77,2,3.39,3.39,0,0,1,1.71,3.15Z" transform="translate(0 0)"/><path class="cls-22" d="M129.57,203.11c-.3,1.52-.56,3-.79,4.59-.32,2.11-.46,4.26-.8,6.36s-.28,4.18-.63,6.25a11.6,11.6,0,0,0-.27,2.35,10,10,0,0,0,.83,3.18c-.06.14-.26.13-.41.09a10.9,10.9,0,0,1-2.42-.86,3.59,3.59,0,0,1-1.73-1.83c-.66-1.71.13-3.62-.37-5.41a22,22,0,0,1-1.1-6.79,44,44,0,0,0,.32-5c-.23-2.86-2-5.74-1-8.42a5.64,5.64,0,0,1,4.59-3.26,3.8,3.8,0,0,1,1.89.16c3,1.2,2.48,5.66,2,8Z" transform="translate(0 0)"/><path class="cls-15" d="M122.64,223.2a.44.44,0,0,1,.15-.12c.23-.1.45.17.58.39a5.06,5.06,0,0,0,2.44,2.08.56.56,0,0,0,.4,0c.15-.06.23-.22.35-.33a.69.69,0,0,1,.66-.11,2,2,0,0,1,.61.33,12.83,12.83,0,0,1,1.64,1.3,1,1,0,0,1,.35,1,.82.82,0,0,1-.45.37,3.23,3.23,0,0,1-2.17-.08c-1.3-.43-2.44-1.21-3.71-1.72a.67.67,0,0,0-.28-.06l-.21,0a.77.77,0,0,1-.56-.36A2,2,0,0,1,122.64,223.2Z" transform="translate(0 0)"/><path class="cls-23" d="M135.65,203.88a11.46,11.46,0,0,1,.78,4.52c0,4-1.1,7.82-2.17,11.63-.45,1.6-.83,3.25-1.36,4.83s.64,4.34,1.49,5.69a3.57,3.57,0,0,1,.5.92.89.89,0,0,1-.29,1,1.12,1.12,0,0,1-.6.13,8.59,8.59,0,0,1-4.78-1.82,1.35,1.35,0,0,1-.76-1.51c.5-8.78,3-17.23-3-24.78-1.38-1.74-3.11-3.33-3.7-5.46a1.89,1.89,0,0,1,0-1,1.56,1.56,0,0,1,.63-.76c1.37-1,3.24-.87,4.89-.49A11.58,11.58,0,0,1,135.65,203.88Z" transform="translate(0 0)"/><path class="cls-15" d="M129.14,231.8c1.28.41,2.29,1.36,3.53,1.86a12.41,12.41,0,0,0,3.55,1.2,1.26,1.26,0,0,0,.61,0,1,1,0,0,0,.43-1.35h0a4.83,4.83,0,0,0-1-1.25,10.45,10.45,0,0,1-1-1.3c-.26-.38-.53-1-1-1.15s-1.09.2-1.54.27a2.9,2.9,0,0,1-1.86-.44,6.84,6.84,0,0,1-1.45-1.29c-.22-.25-.54-.54-.85-.41s-.34.44-.37.72c-.07.68-.12,1.36-.13,2a1.06,1.06,0,0,0,.09.61C128.3,231.59,128.76,231.69,129.14,231.8Z" transform="translate(0 0)"/><path class="cls-3" d="M129.74,188.18a14.87,14.87,0,0,1,7.06,12.39,35,35,0,0,1-13.88,6.29,3.1,3.1,0,0,1-1.76,0,3.68,3.68,0,0,1-1.22-1c-4.61-4.74-12.73-4.26-17.57-8.76-1.83-1.71-3-4.65-1.58-6.69a6.6,6.6,0,0,1,2.14-1.75c3.77-2.24,8.21-5.59,12.76-4.81S125.81,185.8,129.74,188.18Z" transform="translate(0 0)"/><path class="cls-24" d="M131.52,204.09c-2.31-2.47-2.73-6.09-3-9.46a8.76,8.76,0,0,1-2.21,1.39l-.39-1.05a.46.46,0,0,0-.19-.26.58.58,0,0,0-.32,0,32.36,32.36,0,0,1-10.18,1.71,6.55,6.55,0,0,1-3.82-.86,2.58,2.58,0,0,1-.85-3.46,59,59,0,0,1-8.53,1.66.87.87,0,0,0-.63.24c-.22.29,0,.7.19,1a15.36,15.36,0,0,0,9.71,6.2c1.09.19,6.87,2.35,9.47,5.74a1.5,1.5,0,0,0,1.52.48Z" transform="translate(0 0)"/><path class="cls-25" d="M121,144a3.52,3.52,0,0,0-1-.56,3.41,3.41,0,0,0-3.52.45c-.79.81-.84,2.07-1,3.19a9.91,9.91,0,0,1-2,4.41,6.91,6.91,0,0,0-1.43,2.19,1.37,1.37,0,0,0,0,.85,1.88,1.88,0,0,0,.7.67,6.55,6.55,0,0,0,2.14,1c.49.14,1.12.67,1.6.51s.72-.74,1.16-1a2.19,2.19,0,0,1,1.72.07,1.69,1.69,0,0,0,1.68-.16,1.81,1.81,0,0,0,.33-.61,8.45,8.45,0,0,0,.4-1.86,2.82,2.82,0,0,1,.55-1.84,1.64,1.64,0,0,0,.29-.3c.22-.38-.15-.82-.33-1.22a2.89,2.89,0,0,1-.16-1.17C122.12,147.08,122.43,145.07,121,144Z" transform="translate(0 0)"/><path class="cls-7" d="M109.9,154.4a.9.9,0,0,0-.15.76.7.7,0,0,0,.64.35,14.45,14.45,0,0,1,5.45,1.32c.37.18.86.37,1.12,0a.9.9,0,0,0,0-.87,2,2,0,0,0-.57-.61,23.45,23.45,0,0,0-2.32-1.49C112.58,153,111.05,152.52,109.9,154.4Z" transform="translate(0 0)"/><path class="cls-7" d="M115.65,184.54c.87,1.74,2.7,2.8.87,4.55-3.22,3.11-8.93,4.41-13.25,4.37A13.27,13.27,0,0,1,95.1,191a4.67,4.67,0,0,1-1.57-2,5.23,5.23,0,0,1-.26-1.62c-.57-10.19,3-20.23,8.14-29.07,1-1.7,2.25-3.52,4.18-3.81a6.86,6.86,0,0,1,2.07.13,120,120,0,0,1,13,3c3.2.93,5.51,4.36,6.53,7.41.89,2.62,1.23,5.4,2,8a2.14,2.14,0,0,0,.82,1.31,2,2,0,0,0,1.5.06,32.47,32.47,0,0,0,4.53-1.29,19.31,19.31,0,0,1,1.55,5.43,26.89,26.89,0,0,0-3.08,2.86,10.64,10.64,0,0,1-7.92,2.69,3.94,3.94,0,0,1-2.7-1.11,4.55,4.55,0,0,1-.81-1.79q-.67-2.38-1.18-4.81c-.18-.88-.35-1.76-.5-2.65-.1-.56,0-2.16-.41-2.57-1.08-1.25-1.53,1.46-1.72,2.06a34.69,34.69,0,0,1-1.92,4.79C116.38,180,114.55,182.35,115.65,184.54Z" transform="translate(0 0)"/><path class="cls-6" d="M122.3,144.3a3.58,3.58,0,0,0,.07-2,6.76,6.76,0,0,0-1.47-2.61,8.55,8.55,0,0,0-5-3.25c-5.4-.88-11.68,4.63-13.73,9.18-1.29,2.86-1.68,6-2.4,9.09s-1.89,6.18-4.31,8.19c-1,.82-2.17,1.46-2.76,2.59a4.16,4.16,0,0,0,.66,4.36,11.12,11.12,0,0,0,3.1,2.3A7.13,7.13,0,0,1,98.79,175c1.24,2.4,1.73,5.14,3.26,7.4l2.21-1.22a20.39,20.39,0,0,0,5.18-3.6,7,7,0,0,0,2.08-5.74,27.21,27.21,0,0,0-1.29-3.61c-1.24-3.83,1.47-5.37,3.83-7.64a7.1,7.1,0,0,0,2-6.16,4,4,0,0,1-.13-1.51,4.64,4.64,0,0,1,1.22-1.86c1-1.22.21-2.8,1.4-3.92.92-.87,2.33-1,3.2-2A2.42,2.42,0,0,0,122.3,144.3Z" transform="translate(0 0)"/><path class="cls-26" d="M95.8,170.9A20.08,20.08,0,0,1,97.13,167c2.52,1.79,4.37,5.3,5.3,8.26s1.69,6.05,3.59,8.5l2-.71.38,1.3c.3,1-.56,2.07-.47,3.1a2.79,2.79,0,0,0,2.11,2.21,7.07,7.07,0,0,0,3.62-.26,5.32,5.32,0,0,0,2.11-.92,2,2,0,0,0,.77-2,1.33,1.33,0,0,1,.56,1.5,3,3,0,0,1-1,1.39,16.3,16.3,0,0,1-5,2.63,26.74,26.74,0,0,1-2.61.89,27,27,0,0,1-6.2.63c-1.27,0-2-.17-2.59-1.42a18.15,18.15,0,0,1-1-5.75A102.2,102.2,0,0,0,95.8,170.9Z" transform="translate(0 0)"/><path class="cls-3" d="M87.3,199.13,74.67,232.42a1.33,1.33,0,0,0,.78,1.7,1.65,1.65,0,0,0,.32.07h0a1.31,1.31,0,0,0,1.36-.84l12.64-33.28a1.3,1.3,0,0,0-.74-1.68h0a1.3,1.3,0,0,0-1.68.74v0Z" transform="translate(0 0)"/><path class="cls-3" d="M104.19,200.86l3.24,34.67a1.42,1.42,0,0,1-1.34,1.49h-.21a1.22,1.22,0,0,1-1.1-1.09l-3.24-34.66a1.41,1.41,0,0,1,1.22-1.49h0a1.22,1.22,0,0,1,1.42,1v0A.2.2,0,0,1,104.19,200.86Z" transform="translate(0 0)"/><path class="cls-3" d="M93.42,199.9l-9.36,33.49a1.45,1.45,0,0,0,1.07,1.75h.18a1.16,1.16,0,0,0,1.27-.85L96,200.8a1.45,1.45,0,0,0-.93-1.71h0a1.19,1.19,0,0,0-1.55.66h0A.88.88,0,0,0,93.42,199.9Z" transform="translate(0 0)"/><path class="cls-3" d="M110.74,201.8,119.22,237a1.19,1.19,0,0,1-.8,1.48,1.35,1.35,0,0,1-.49,0h0a1.45,1.45,0,0,1-1.24-1.1l-8.5-35.18a1.19,1.19,0,0,1,.82-1.47h.18A1.45,1.45,0,0,1,110.74,201.8Z" transform="translate(0 0)"/><path class="cls-4" d="M108.3,175.07c-2.44-5.57-5.94-11.18-11.56-13.53-3.46-1.44-7.34-1.47-11.09-1.21a21.58,21.58,0,0,0-8.15,1.77,8.77,8.77,0,0,0-5,6.32,13.14,13.14,0,0,0,.53,4.79l3.84,16.24c.5,2.14,1.06,4.37,2.55,6a12.86,12.86,0,0,0,5.29,2.94c6.32,2.28,12.71,4.59,19.37,5.47s13.73.24,19.58-3.06c2.09-1.18,4.22-3.4,3.38-5.64-.66-1.73-2.76-2.39-4.61-2.5-4.84-.3-6.18-1-8.62-5.24C111.58,183.49,110.15,179.19,108.3,175.07Z" transform="translate(0 0)"/><path class="cls-7" d="M110.64,87.62A4.65,4.65,0,1,0,115.29,83,4.65,4.65,0,0,0,110.64,87.62Zm3.25,0a1.4,1.4,0,1,1,1.4,1.4A1.41,1.41,0,0,1,113.89,87.62Z" transform="translate(0 0)"/><path class="cls-7" d="M80.66,84.58v2.84a.77.77,0,0,0,.77.77h4.16a5.23,5.23,0,0,1-.06-.57,5.85,5.85,0,1,1,11.7,0,5.51,5.51,0,0,1-.06.57H109.5a5.23,5.23,0,0,1-.06-.57,5.85,5.85,0,1,1,11.7,0,5.51,5.51,0,0,1-.06.57h4.45a.77.77,0,0,0,.78-.77v-3a.6.6,0,0,0-.61-.6V81.53a2.27,2.27,0,0,0-1.72-2.2l-7.89-2-5.86-4.72a10.35,10.35,0,0,0-6.49-2.28H93.23a2.68,2.68,0,0,0-1.81.7l-5.18,4.66-1.67-.1a2.29,2.29,0,0,0-2.38,2l-.76,6.19A.76.76,0,0,0,80.66,84.58ZM97,72.79h6.48a8.57,8.57,0,0,1,5.38,1.9l2.81,2.25L97,76.2Zm-7.28,3,3-2.69a1.33,1.33,0,0,1,.89-.35h1v3.29Z" transform="translate(0 0)"/><path class="cls-7" d="M86.72,87.62A4.65,4.65,0,1,0,91.37,83,4.65,4.65,0,0,0,86.72,87.62Zm3.25,0a1.41,1.41,0,1,1,1.4,1.4A1.41,1.41,0,0,1,90,87.62Z" transform="translate(0 0)"/><g id="triangle-rouge"><path class="cls-7" d="M226.21,69.86,214.33,90.43a1.76,1.76,0,0,0,.65,2.41,1.78,1.78,0,0,0,.88.23h23.76a1.76,1.76,0,0,0,1.76-1.76,1.81,1.81,0,0,0-.23-.88L229.26,69.86a1.76,1.76,0,0,0-2.41-.64A1.78,1.78,0,0,0,226.21,69.86Z" transform="translate(0 0)"/><path class="cls-7" d="M226.2,72.82,217,88.7a1.77,1.77,0,0,0,.65,2.41,1.71,1.71,0,0,0,.88.24H236.9a1.76,1.76,0,0,0,1.76-1.77,1.81,1.81,0,0,0-.23-.88l-9.18-15.88a1.76,1.76,0,0,0-2.41-.64A1.78,1.78,0,0,0,226.2,72.82Z" transform="translate(0 0)"/></g><g id="eboulement"><path class="cls-27" d="M230.09,77.84l6.64,11.5a.31.31,0,0,1-.12.42.24.24,0,0,1-.15,0h-11.7a.3.3,0,0,1-.31-.3.22.22,0,0,1,0-.08l.12-.5a.24.24,0,0,1,.07-.13l2.15-2.38a.32.32,0,0,0,.08-.21v-1A.29.29,0,0,1,227,85l.55-.52a.38.38,0,0,0,.09-.13l.69-2.21a.29.29,0,0,0,0-.13l-.08-.59a.29.29,0,0,1,.12-.29l0,0a.31.31,0,0,0,.13-.28l-.07-.73a.2.2,0,0,1,0-.11l.11-.42.09-.43a.3.3,0,0,1,.2-.23l.07,0a.3.3,0,0,0,.18-.15l.42-.84v0h0a.3.3,0,0,1,.4-.17A.27.27,0,0,1,230.09,77.84Z" transform="translate(0 0)"/><path class="cls-27" d="M228.32,78.25h0l.11-.07a.16.16,0,0,0,.15.17h0a.25.25,0,0,1,.21.24h0a.24.24,0,0,1-.13.22l-.16.08a.24.24,0,0,1-.31-.09l-.08-.12a.17.17,0,0,1,0-.21Z" transform="translate(0 0)"/><path class="cls-27" d="M227.58,79.16l-.23.11a.22.22,0,0,0-.11.18v.35a.21.21,0,0,0,.07.15l.26.24a.21.21,0,0,0,.13,0h.09a.19.19,0,0,0,.19-.16l.07-.31v-.43a.2.2,0,0,0-.2-.2h-.18Z" transform="translate(0 0)"/><path class="cls-27" d="M227.9,80.7l-.16.08a.17.17,0,0,0-.1.14v.18a.15.15,0,0,0,0,.09l.1.18a.15.15,0,0,0,.22.06h0l0,0,0-.06.12-.26a.17.17,0,0,0,0-.14l-.07-.15a.17.17,0,0,0-.22-.09Z" transform="translate(0 0)"/><path class="cls-27" d="M225.91,80.47l-.15.11a.2.2,0,0,1-.14.06l-.33,0a.23.23,0,0,0-.16.06l-.36.34-.06.07-.25.52s0,0,0,.06l-.06.29a.31.31,0,0,1-.11.16l-.09.06a.25.25,0,0,0-.09.33l.1.18a.25.25,0,0,0,.14.13l.22.07.08,0,.39.3,0,0,.41.22a.37.37,0,0,0,.18,0l.77-.2a.19.19,0,0,0,.15-.11l.17-.25,0,0,.17-.44v0l.14-.3a.23.23,0,0,0,0-.11v-.43a.23.23,0,0,0,0-.14l-.26-.43,0-.06-.54-.5A.25.25,0,0,0,225.91,80.47Z" transform="translate(0 0)"/><path class="cls-27" d="M226.34,84a.21.21,0,0,0-.19-.11h-.65a.2.2,0,0,0-.17.09l-.2.31a.17.17,0,0,0,0,.17l.09.34a.18.18,0,0,0,0,.09l.29.34.09.06.27.1a.21.21,0,0,0,.25-.09l.12-.19a.18.18,0,0,1,.08-.07l.18-.12a.19.19,0,0,0,.09-.23l-.07-.3,0,0Z" transform="translate(0 0)"/><path class="cls-27" d="M222.86,85.8l-.69-.39a.34.34,0,0,0-.22,0l-1.16.2a.3.3,0,0,0-.21.13l-.63.9a.44.44,0,0,0-.06.16l-.1,1.33a.33.33,0,0,0,.1.25l.5.51a.34.34,0,0,0,.27.1l.61-.07a.22.22,0,0,1,.14,0l.39.13a.34.34,0,0,0,.28,0l.76-.5a.2.2,0,0,0,.11-.11l.51-.9a.28.28,0,0,0,0-.2l-.09-.77a.33.33,0,0,0-.07-.16l-.39-.48A.34.34,0,0,0,222.86,85.8Z" transform="translate(0 0)"/><path class="cls-27" d="M222.44,83.21l-.26.07a.28.28,0,0,0-.18.12l-.2.28a.69.69,0,0,0-.05.13l-.09.56a.36.36,0,0,0,0,.21l.17.28a.31.31,0,0,0,.22.15l.5.08a.29.29,0,0,0,.16,0l.39-.16a.31.31,0,0,0,.18-.19l.18-.54a.28.28,0,0,0,0-.09v-.31a.32.32,0,0,0-.23-.31l-.21,0-.07,0-.34-.17A.29.29,0,0,0,222.44,83.21Z" transform="translate(0 0)"/><path class="cls-27" d="M224.64,86.11l-.33.16a.24.24,0,0,0-.11.13l-.09.27-.07.22a.2.2,0,0,0,.06.23l.27.23a.22.22,0,0,0,.17.05l.4-.06a.25.25,0,0,0,.18-.15l.13-.4a.31.31,0,0,0,0-.1l0-.35a.2.2,0,0,0-.16-.18l-.26-.07A.26.26,0,0,0,224.64,86.11Z" transform="translate(0 0)"/></g></svg>