<svg id="Capa_1" data-name="Capa 1" xmlns="http://www.w3.org/2000/svg" viewBox="0 0 452.21 512"><defs><style>.cls-1{fill:#277eff;}</style></defs><path class="cls-1" d="M121.47,166.12c2,24.21,6.67,57.38,17.19,92.2C161,332.28,200.45,384.86,256,414.75c55.54-29.89,95-82.47,117.34-156.43,10.52-34.82,15.16-68,17.19-92.2L256,98.85Z" transform="translate(-29.9 0)"/><path class="cls-1" d="M481.85,119.66A15,15,0,0,0,473.58,107L262.71,1.58a15,15,0,0,0-13.42,0L38.42,107a15,15,0,0,0-8.27,12.64c-.16,3.07-3.63,76.16,21.27,161,14.73,50.22,36.41,94.07,64.41,130.36A304.93,304.93,0,0,0,250.67,511a15,15,0,0,0,10.66,0,304.93,304.93,0,0,0,134.84-100c28-36.29,49.68-80.14,64.41-130.36,24.9-84.86,21.43-158,21.27-161ZM262.65,445.07a15,15,0,0,1-13.3,0c-66.79-33-113.69-92.94-139.41-178.08-12.86-42.58-17.5-82.7-19.13-108.87a15,15,0,0,1,8.26-14.35l150.22-75.1a15,15,0,0,1,13.42,0l150.22,75.1a15,15,0,0,1,8.26,14.35c-1.63,26.17-6.27,66.3-19.13,108.87-25.72,85.14-72.62,145.06-139.41,178.08Z" transform="translate(-29.9 0)"/></svg>