<svg width="61" height="60" viewBox="0 0 61 60" fill="none" xmlns="http://www.w3.org/2000/svg">
<g clip-path="url(#clip0)">
<path d="M60.4992 31.1649L60.1563 34.381C60.1454 34.483 60.1213 34.579 60.0864 34.6668C59.8195 35.3463 58.9153 35.6025 58.3093 35.089C58.0293 34.8519 57.7492 34.617 57.4703 34.387C44.0308 23.2454 32.1176 19.1978 30.6558 18.7277C30.5582 18.6964 30.4536 18.696 30.356 18.7274C28.8681 19.2056 16.484 23.4122 2.70152 35.0889C2.01585 35.6699 0.9498 35.2655 0.854409 34.3809L0.511519 31.1648C0.482574 30.8885 0.556168 30.6182 0.725152 30.3964C2.85152 27.6253 17.6475 8.77633 30.1059 4.56049C30.3646 4.47291 30.6449 4.47256 30.9038 4.56014C41.17 8.03687 53.0411 21.4674 58.08 27.6229C59.1509 28.9309 59.9126 29.9104 60.2856 30.3966C60.4546 30.6183 60.5283 30.8887 60.4992 31.1649Z" fill="#EAEAEA"/>
<path d="M60.1563 34.3809L60.0863 34.6667C59.8195 35.3463 58.9153 35.6024 58.3093 35.0889C44.5268 23.4123 32.1426 19.2056 30.6549 18.7274C30.5577 18.6962 30.4531 18.6962 30.356 18.7274C28.8683 19.2056 16.4841 23.4123 2.7016 35.0889C2.01594 35.67 0.949883 35.2656 0.854492 34.3809C0.854492 34.3809 22.0547 15.2212 30.5055 15.2212C38.9562 15.2212 60.1563 34.3809 60.1563 34.3809Z" fill="#DBDBDB"/>
<path d="M60.4992 51.4629L60.1563 54.679C60.1454 54.781 60.1213 54.8771 60.0864 54.9648C59.8195 55.6443 58.9153 55.9005 58.3094 55.387C58.0293 55.1498 57.7492 54.915 57.4703 54.685C44.0308 43.5432 32.1176 39.4957 30.6559 39.0257C30.5582 38.9943 30.4536 38.994 30.356 39.0253C28.8682 39.5036 16.484 43.7102 2.70153 55.3869C2.01586 55.9679 0.94981 55.5635 0.854419 54.6789L0.511764 51.4629C0.482818 51.1866 0.556412 50.9162 0.725396 50.6945C2.85153 47.9233 17.6475 29.0743 30.1059 24.8583C30.3646 24.7708 30.645 24.7704 30.9038 24.858C41.17 28.3347 53.0411 41.7653 58.08 47.9207C59.1509 49.2287 59.9126 50.2082 60.2856 50.6944C60.4546 50.9162 60.5283 51.1867 60.4992 51.4629Z" fill="#EAEAEA"/>
<path d="M60.1563 54.6788L60.0863 54.9646C59.8195 55.6441 58.9153 55.9003 58.3093 55.3868C44.5268 43.7101 32.1426 39.5035 30.6549 39.0253C30.5577 38.994 30.4531 38.994 30.356 39.0253C28.8683 39.5035 16.4841 43.7101 2.7016 55.3868C2.01594 55.9678 0.949883 55.5634 0.854492 54.6788C0.854492 54.6788 22.0547 35.519 30.5055 35.519C38.9562 35.519 60.1563 54.6788 60.1563 54.6788Z" fill="#DBDBDB"/>
</g>
<defs>
<clipPath id="clip0">
<rect width="60" height="59" fill="white" transform="translate(0.505371 0.57666)"/>
</clipPath>
</defs>
</svg>
