<svg width="92" height="93" viewBox="0 0 92 93" fill="none" xmlns="http://www.w3.org/2000/svg">
<path d="M45.9907 67.1533C69.2846 67.1533 88.1946 57.9373 88.1946 46.5553C88.1946 35.2162 69.2846 26 45.9907 26C22.6677 26 3.81616 35.2162 3.81616 46.5553C3.81616 57.9373 22.6677 67.1533 45.9907 67.1533Z" fill="#DBDBDB"/>
<path d="M45.9908 26C45.2787 26 44.5708 26.0088 43.8673 26.0258C66.1773 26.565 83.9502 35.5622 83.9502 46.5553C83.9502 57.5897 66.1772 66.5882 43.8673 67.1273C44.5707 67.1443 45.2785 67.1531 45.9908 67.1531C69.2847 67.1533 88.1947 57.9373 88.1947 46.5553C88.1947 35.2162 69.2847 26 45.9908 26Z" fill="#DBDBDB"/>
<path d="M38.9805 56.1408C37.3494 56.1347 36.0124 55.3219 35.3937 54.0385C35.1208 54.2401 34.7874 54.4552 34.4001 54.6786L34.385 54.6875L34.3166 54.723C34.0816 54.8471 33.8685 54.9499 33.6388 54.949C33.5003 54.9485 33.369 54.9087 33.2592 54.8339L33.2251 54.8108L33.1944 54.7831C32.8482 54.4699 32.6097 54.0487 32.557 53.6563L32.42 52.6391L33.1264 52.9195C33.2121 52.8547 33.3243 52.7664 33.4402 52.6751L33.6239 52.5307C34.5539 51.8242 34.7836 51.2831 34.7858 51.2777L34.7963 51.2486L34.8054 51.2326C35.0219 50.7834 35.3578 50.1404 35.6541 49.5731L35.8992 49.1031C37.1943 46.5254 39.108 45.1204 41.4297 45.0468L41.4507 45.0464C42.0698 45.0488 42.3673 45.3352 42.5362 45.5877C42.5682 45.6196 43.2328 45.1436 43.6658 45.1452C43.825 45.1459 44.1564 45.1471 44.4492 45.4455C45.0232 46.0294 45.3557 46.9283 45.4822 47.7505C46.565 46.4748 47.7067 45.2875 48.7474 44.9361C49.0981 44.7707 49.4221 44.7703 49.6855 44.7713C49.7204 44.7705 49.7549 44.7703 49.7888 44.7703C50.628 44.7735 51.2737 45.0348 51.7079 45.5471C51.8539 45.7192 51.9612 45.9035 52.0397 46.0874C52.8141 45.3721 53.6119 44.9361 54.6083 44.9398C54.6793 44.9401 54.7512 44.9425 54.824 44.9471C56.3173 45.0278 56.9958 46.1337 56.9921 47.1269L56.9916 47.1501C56.9458 48.2517 56.1213 49.412 54.8205 49.4468L54.8026 49.447C53.9927 49.444 53.3629 49.1321 52.9471 48.5365C52.8807 48.6649 52.8263 48.846 52.7851 49.1094L52.7824 49.1249C56.0429 51.0678 57.0763 48.3204 57.4437 47.935C58.8692 46.4391 60.2155 45.0263 62.7576 45.0358L62.8281 45.0363C64.2027 45.0648 64.9392 45.7885 65.3664 46.4626L68.7979 40.661C68.8503 40.5724 68.945 40.5182 69.0474 40.5186L72.1128 40.5301C72.3343 40.5309 72.4733 40.772 72.3637 40.9666C71.1048 43.2027 65.4153 53.3104 65.3693 53.4372C65.9644 53.2931 66.7657 52.3589 68.6111 50.4149C68.6111 50.4149 69.2074 49.6621 69.9332 49.9047C70.3638 50.0486 70.8907 50.2792 70.8887 50.8116C70.8871 51.2539 68.7601 56.1412 64.382 56.1407L64.3663 56.1408C63.3746 56.1372 62.7229 55.8106 62.3675 55.1258C61.4713 55.592 60.0652 56.0345 58.6736 56.0294C57.2922 55.996 56.3179 55.3333 55.7658 54.0593C55.5491 53.5887 55.4367 53.0265 55.4361 52.4524C54.9494 52.5725 54.4616 52.6033 53.9291 52.6013C53.7866 52.6008 53.6383 52.5976 53.4835 52.5928C52.3615 52.5617 51.5441 52.127 51.0118 51.2716L50.8309 51.6028C50.1675 52.8164 48.8696 55.2381 48.5319 55.8686C48.4811 55.9634 48.3836 56.0212 48.2769 56.0207L45.0076 56.0085C44.7848 56.0077 44.6463 55.7633 44.7587 55.5687L48.0788 49.813C48.3888 48.5793 46.4107 50.2699 44.8553 52.14C43.6554 53.581 41.9354 56.1518 38.9805 56.1408ZM39.2282 52.3574C41.4919 52.3574 42.3195 49.4063 41.9469 49.0893C41.1039 48.3718 39.0611 48.953 38.6365 51.1531C38.5147 51.7851 38.7776 52.2481 39.2282 52.3574ZM59.9053 49.81C59.4075 50.2816 58.9645 51.3459 59.1814 51.9392C59.2616 52.1586 60.704 52.8297 62.014 51.1511C62.4228 50.6273 62.7374 49.8494 62.5608 49.2924C62.478 49.0311 61.4629 48.3352 59.9053 49.81Z" fill="white"/>
<path d="M26.7074 43.9814C25.86 43.9814 25.0579 43.6361 24.449 43.0095C23.7694 42.3099 23.3745 41.2999 23.393 40.3076C23.4103 38.5831 24.3348 37.0193 25.9962 35.9093C27.8672 34.6592 31.3062 32.5336 38.8153 33.5874C41.1661 33.9173 46.5168 35.9961 54.6819 35.2255C54.9457 35.2007 55.0532 35.1411 55.4198 35.1411C55.9502 35.1411 56.5825 35.325 56.5825 36.2009C56.5825 37.7446 52.7334 39.4628 50.1248 39.4628C47.0237 39.4628 43.8832 38.403 41.5902 37.6289C40.7218 37.3359 39.9722 37.0829 39.4323 36.96C37.3563 36.4698 35.3706 36.0308 33.8432 36.0308C29.8975 36.0308 28.1399 37.2745 27.4434 38.016C26.8904 38.6046 26.6166 39.2716 26.6517 39.9443C26.6811 40.4042 26.9772 40.6721 27.4634 40.6721C27.5563 40.6721 27.6552 40.6623 27.7577 40.6426C28.7347 40.47 30.1315 39.4898 30.4346 38.7684C30.5806 38.4245 30.911 38.1981 31.2771 38.2039C32.0976 38.2169 32.1388 39.0028 32.08 39.2857C31.8865 40.6121 29.9872 43.9814 26.7074 43.9814Z" fill="white"/>
<path d="M24.9626 55.7648C21.7343 55.7648 19.4363 53.5359 19.3745 50.3443C19.3567 49.2366 19.7971 48.041 20.5827 47.0617C21.4537 45.9759 22.6681 45.2134 24.0946 44.8572L24.1691 44.8386H24.2457C24.9898 44.8386 25.3229 45.3092 25.3229 45.7756C25.3229 45.9654 25.2486 46.4399 24.5608 46.7484L24.5426 46.7566L24.5238 46.7636C23.987 46.9644 22.7238 48.3279 22.7238 49.5472C22.7238 50.3771 23.2342 51.3543 24.0884 51.5532L24.1126 51.5594C27.8315 52.3423 29.7859 49.3536 33.1894 44.7469C32.395 44.8962 31.6399 45.118 31.4425 45.3474C31.4425 45.3474 30.9337 45.6746 30.714 45.6746C30.3006 45.6746 29.9612 45.3839 29.8497 44.934L29.8307 44.858V44.7797C29.8307 44.4808 30.0519 44.1191 30.1372 44.005L30.1524 43.9845L30.1692 43.9653C31.0708 42.9405 33.0992 42.5748 34.7845 42.3734C37.2191 38.6354 37.9177 38.3262 38.5177 38.3262C38.6791 38.3262 38.8055 38.3617 38.908 38.3965L38.9719 38.418C39.3302 38.5389 40.6254 39.2742 38.8668 41.6328C39.1853 41.5883 39.9873 41.5325 40.1781 41.3065C40.6114 38.9113 43.3224 38.2597 44.0844 40.7662C44.4013 41.8084 43.6673 42.4588 43.0465 42.911C41.5839 43.9763 39.0354 44.3176 37.7684 44.5935C31.9822 54.0254 28.9754 55.7648 24.9626 55.7648Z" fill="white"/>
<path d="M45.9865 66C35.45 66 25.5322 64.1113 18.0601 60.6818C10.283 57.1122 6 52.2469 6 46.9815C6 41.732 10.2832 36.8779 18.0606 33.3135C25.5368 29.887 35.4543 28 45.9865 28C56.5102 28 66.4287 29.8868 73.9152 33.3131C81.7081 36.8797 86 41.7339 86 46.9815C86 52.245 81.7084 57.1107 73.9157 60.6821C66.4333 64.1113 56.5145 66 45.9865 66ZM45.9865 30.4731C35.7999 30.4731 26.2459 32.2808 19.0842 35.563C12.3349 38.6564 8.46407 42.8182 8.46407 46.9815C8.46407 51.2225 12.2359 55.2893 19.0847 58.4325C26.2421 61.7177 35.796 63.5267 45.9865 63.5267C56.1689 63.5267 65.7242 61.7173 72.8923 58.4323C79.6565 55.3322 83.5359 51.1585 83.5359 46.9815C83.5359 42.8207 79.6567 38.6587 72.8928 35.5634C65.7206 32.2808 56.1649 30.4731 45.9865 30.4731Z" fill="white"/>
</svg>
