<svg xmlns="http://www.w3.org/2000/svg" xmlns:xlink="http://www.w3.org/1999/xlink" viewBox="0 0 358.14 393.32"><defs><style>.cls-1,.cls-2{fill:#277eff;}.cls-1{opacity:0.18;isolation:isolate;}.cls-3{fill:url(#Dégradé_sans_nom_5);}.cls-4{fill:#f3c091;}.cls-5{fill:#ffcd90;}.cls-6{fill:#2e2e3f;}.cls-7{fill:url(#Dégradé_sans_nom_5-2);}.cls-8{fill:url(#Dégradé_sans_nom_5-3);}.cls-9{fill:url(#Dégradé_sans_nom_5-4);}.cls-10{fill:#452d21;}.cls-11{fill:url(#Dégradé_sans_nom_5-5);}.cls-12{fill:#fff;}.cls-13{fill:none;stroke:#fff;stroke-miterlimit:10;stroke-width:1.5px;}</style><linearGradient id="Dégradé_sans_nom_5" x1="219.99" y1="153.94" x2="188.31" y2="176.92" gradientTransform="matrix(1, 0, 0, -1, -30.05, 363.34)" gradientUnits="userSpaceOnUse"><stop offset="0.01"/><stop offset="0.13" stop-opacity="0.69"/><stop offset="1" stop-opacity="0"/></linearGradient><linearGradient id="Dégradé_sans_nom_5-2" x1="213.89" y1="66.42" x2="187.78" y2="68.77" xlink:href="#Dégradé_sans_nom_5"/><linearGradient id="Dégradé_sans_nom_5-3" x1="241.08" y1="63.5" x2="206.62" y2="59.84" xlink:href="#Dégradé_sans_nom_5"/><linearGradient id="Dégradé_sans_nom_5-4" x1="257.81" y1="145.1" x2="204.02" y2="150.32" xlink:href="#Dégradé_sans_nom_5"/><linearGradient id="Dégradé_sans_nom_5-5" x1="270.72" y1="142.64" x2="231.03" y2="135.85" xlink:href="#Dégradé_sans_nom_5"/></defs><title>Fichier 1</title><g id="Calque_2" data-name="Calque 2"><g id="Calque_1-2" data-name="Calque 1"><ellipse class="cls-1" cx="194.91" cy="374.52" rx="104.45" ry="18.8"/><path class="cls-1" d="M324.42,174.66c.56-21.2-8.7-41.28-17.86-60.41-10.65-22.23-22-45.17-41.3-60.56C241.89,35,209.69,30.23,180.12,34.77S123,52.23,96.37,66c-15.7,8.12-31.31,16.63-45.25,27.5-8.68,6.77-16.89,14.75-21,25-3.59,8.89-3.78,18.73-3.92,28.31L24.72,247.19c-.08,5.46-.14,11.08,1.78,16.19,2.59,6.87,8.37,11.95,13.94,16.73,11.3,9.7,23.44,19.8,38.17,22,15.52,2.32,30.94-4.6,46.63-5,18.85-.45,36.46,8.46,54.52,13.9a152.22,152.22,0,0,0,69.76,4.18c16.62-2.91,33.34-9,45.08-21.09,6.76-7,11.56-15.61,15.37-24.54A143.41,143.41,0,0,0,320.38,231c1.16-9.24,5.76-19,6.08-28.07C326.8,193.73,324.16,184.28,324.42,174.66Z"/><path class="cls-2" d="M156.54,206.34a57.87,57.87,0,0,0-12.28-9.64,15.28,15.28,0,0,0-5.51-2.21,8.63,8.63,0,0,0-9.07,11.92,15.85,15.85,0,0,0,4.75,5.6,83.62,83.62,0,0,0,21.73,13.08,11.5,11.5,0,0,0,4.46,1.11c2.34,0,4.45-1.39,6.26-2.88,5.17-4.28,9-10,12.44-15.72,2.64-4.34,5.18-8.81,6.57-13.7.79-2.78,1.2-5.65,1.71-8.49s1.07-5.45,1.75-8.15c.58-2.29,2.6-6.08,2.41-8.39-.45-5.27-7.65.44-9.58,1.82a68,68,0,0,0-18.64,20.95A92.51,92.51,0,0,0,156.54,206.34Z"/><path class="cls-3" d="M156.54,206.34a57.87,57.87,0,0,0-12.28-9.64,15.28,15.28,0,0,0-5.51-2.21,8.63,8.63,0,0,0-9.07,11.92,15.85,15.85,0,0,0,4.75,5.6,83.62,83.62,0,0,0,21.73,13.08,11.5,11.5,0,0,0,4.46,1.11c2.34,0,4.45-1.39,6.26-2.88,5.17-4.28,9-10,12.44-15.72,2.64-4.34,5.18-8.81,6.57-13.7.79-2.78,1.2-5.65,1.71-8.49s1.07-5.45,1.75-8.15c.58-2.29,2.6-6.08,2.41-8.39-.45-5.27-7.65.44-9.58,1.82a68,68,0,0,0-18.64,20.95A92.51,92.51,0,0,0,156.54,206.34Z"/><path class="cls-4" d="M133,193.7a49.38,49.38,0,0,0-3.8-5.28c-.19-.24-.45-.5-.76-.44s-.47.47-.65.77c-.73,1.21-2.63.77-3.73-.12s-2.1-2.15-3.52-2.23a3.19,3.19,0,0,0-3,2.82,7.91,7.91,0,0,0,.89,4.38,35.25,35.25,0,0,0,1.87,3.74,15.38,15.38,0,0,0,3.42,4.23,12.74,12.74,0,0,0,4.59,2.27,10.1,10.1,0,0,0,5,.33,5.35,5.35,0,0,0,3.83-3C138.5,197.72,134.44,196.15,133,193.7Z"/><path class="cls-5" d="M171.83,354a4.1,4.1,0,0,0,.22,1.63c.55,1.26,2.26,1.6,3.56,1.17a4.75,4.75,0,0,0,2.92-2.66,8.23,8.23,0,0,0,.42-3.75,27.77,27.77,0,0,0-.49-3.63,3.16,3.16,0,0,0-1.22-2.22c-1.59-.9-4.57,1.06-5.17,2.6C171.31,349,171.85,351.92,171.83,354Z"/><path class="cls-6" d="M177.4,353.82a7.33,7.33,0,0,1-1.57,1.14,5.07,5.07,0,0,1-2.41.27,2.52,2.52,0,0,0-3,.78,13.55,13.55,0,0,1-2.25,1.5l-3.32,1.83a14.33,14.33,0,0,0-2.77,1.87c-.51.48-1,1-1.46,1.53a2.38,2.38,0,0,0-.61.73,1.45,1.45,0,0,0,.39,1.54,3,3,0,0,0,1.51.7,7.5,7.5,0,0,0,2,.19,22.84,22.84,0,0,0,2.86-.38,48.06,48.06,0,0,0,6.31-1.19c2.08-.63,4.11-1.4,6.14-2.17a4.52,4.52,0,0,0,1.94-1.15,4.09,4.09,0,0,0,.38-3.57,19.7,19.7,0,0,0-.76-2.48c-.3-.79-.78-1.66-1.61-1.81a2.14,2.14,0,0,0-1.59.51Z"/><path class="cls-6" d="M158.55,291.69a331.33,331.33,0,0,0,8.15,47.65c.6,2.42,1.27,4.92,2.83,6.87s4.29,3.18,6.62,2.28a6.14,6.14,0,0,0,3.48-4.87,20.06,20.06,0,0,0-.32-6.23c-2.45-16.85-1.07-34,1.23-50.89a92.8,92.8,0,0,1,3.28-16.16c1.11-3.49,2.61-6.92,2.85-10.58.69-10.74-9.93-18.63-20.09-16.33-9.41,2.13-8.67,17.79-8.94,25.18A174.34,174.34,0,0,0,158.55,291.69Z"/><path class="cls-7" d="M158.55,291.69a331.33,331.33,0,0,0,8.15,47.65c.6,2.42,1.27,4.92,2.83,6.87s4.29,3.18,6.62,2.28a6.14,6.14,0,0,0,3.48-4.87,20.06,20.06,0,0,0-.32-6.23c-2.45-16.85-1.07-34,1.23-50.89a92.8,92.8,0,0,1,3.28-16.16c1.11-3.49,2.61-6.92,2.85-10.58.69-10.74-9.93-18.63-20.09-16.33-9.41,2.13-8.67,17.79-8.94,25.18A174.34,174.34,0,0,0,158.55,291.69Z"/><path class="cls-5" d="M217,362.48a4.14,4.14,0,0,0,.89,1.38c1,.9,2.72.48,3.73-.45a4.85,4.85,0,0,0,1.51-3.66,8.06,8.06,0,0,0-1.23-3.59,27,27,0,0,0-2-3.08,3.13,3.13,0,0,0-2-1.49c-1.83-.14-3.7,2.9-3.58,4.55C214.35,358.22,216.08,360.63,217,362.48Z"/><path class="cls-6" d="M223.46,360.49c-.45-.25-1-.21-1.72.41a15.43,15.43,0,0,1-1.56,1.47c-1,.61-2.19.57-3.23,1a7.47,7.47,0,0,0-1.7,1.2,29.15,29.15,0,0,0-5.2,5.27c-1,1.41-3.33,3.74-1.66,5.5.81.85,2.19.79,3.33.49a24.77,24.77,0,0,0,3.43-1.27c2.6-1.1,5.19-2.2,7.71-3.46a8,8,0,0,0,2.6-1.78,5.27,5.27,0,0,0,.89-5.05,7.26,7.26,0,0,0-1.06-1.4C224.68,362.12,224.2,360.91,223.46,360.49Z"/><path class="cls-6" d="M177.15,251.13c-1.45,5-.2,10.32.9,15.4a274.4,274.4,0,0,1,5.67,40.65,30.21,30.21,0,0,0,.84,6.35,27.23,27.23,0,0,0,2.53,5.58q9.6,17.53,20.44,34.34c1.7,2.64,3.92,5.56,7.06,5.62,4,.09,6.48-4.77,5.82-8.7s-3.3-7.19-5.27-10.66c-3-5.25-4.53-11.19-6-17s-3-11.86-3.42-17.94c-.9-14,4.15-27.52,7.13-41.18a23,23,0,0,0,.71-7.71c-.66-5.27-4.78-9.69-9.7-11.69C195.81,240.89,180.09,241,177.15,251.13Z"/><path class="cls-8" d="M177.15,251.13c-1.45,5-.2,10.32.9,15.4a274.4,274.4,0,0,1,5.67,40.65,30.21,30.21,0,0,0,.84,6.35,27.23,27.23,0,0,0,2.53,5.58q9.6,17.53,20.44,34.34c1.7,2.64,3.92,5.56,7.06,5.62,4,.09,6.48-4.77,5.82-8.7s-3.3-7.19-5.27-10.66c-3-5.25-4.53-11.19-6-17s-3-11.86-3.42-17.94c-.9-14,4.15-27.52,7.13-41.18a23,23,0,0,0,.71-7.71c-.66-5.27-4.78-9.69-9.7-11.69C195.81,240.89,180.09,241,177.15,251.13Z"/><path class="cls-2" d="M181.19,175c-3.05,4.95-4.87,10.54-6.66,16.06-1.38,4.25-2.76,8.51-3.77,12.87-1.84,7.93-2.45,16.13-4.7,24-2.06,7.18-5.51,14.61-3.41,21.78a20.14,20.14,0,0,0,4.21,7.33,32.56,32.56,0,0,0,33.68,9.71,23.28,23.28,0,0,0,6.48-3.09c5.26-3.71,8.19-10,9.52-16.28s1.29-12.8,1.88-19.21c1-10.92,3.84-21.66,4-32.62s-3-22.74-11.53-29.58C200,157.28,187.41,164.94,181.19,175Z"/><path class="cls-9" d="M181.19,175c-3.05,4.95-4.87,10.54-6.66,16.06-1.38,4.25-2.76,8.51-3.77,12.87-1.84,7.93-2.45,16.13-4.7,24-2.06,7.18-5.51,14.61-3.41,21.78a20.14,20.14,0,0,0,4.21,7.33,32.56,32.56,0,0,0,33.68,9.71,23.28,23.28,0,0,0,6.48-3.09c5.26-3.71,8.19-10,9.52-16.28s1.29-12.8,1.88-19.21c1-10.92,3.84-21.66,4-32.62s-3-22.74-11.53-29.58C200,157.28,187.41,164.94,181.19,175Z"/><path class="cls-4" d="M184.34,138.18c-1,3.31-1.68,6.79-1.14,10.2s2.55,6.75,5.75,8c1.32.53,2.86.75,3.79,1.82a5.35,5.35,0,0,1,.84,3.89,39.73,39.73,0,0,1-.43,4.08,6.3,6.3,0,0,0-.1,2.29,3.66,3.66,0,0,0,2.77,2.66,6.1,6.1,0,0,0,3.94-.5c3.68-1.63,6-5.44,7-9.34s.93-8,1.25-12a45.29,45.29,0,0,0,.32-6.79,17,17,0,0,0-7-12.5c-2.88-2.07-9.09-4.7-12.53-2.51-1.21.77-1.65,2.19-2.1,3.47C185.85,133.34,185,135.76,184.34,138.18Z"/><path class="cls-10" d="M190.77,114.78a5,5,0,0,0-3.42,3.27,9.29,9.29,0,0,0-.18,4.88,17.39,17.39,0,0,0,5.07,9.32c1.63,1.55,3.58,2.82,4.72,4.74a10.49,10.49,0,0,1,1.24,4c.06.43.15.93.54,1.13s1-.16,1.42-.53c.78-.75,1.77-1.54,2.82-1.27s1.62,1.72,1.62,2.92a4.16,4.16,0,0,1-1.66,3.68c-.36.22-.83.4-.94.8-.17.59.49,1,.84,1.54a4.32,4.32,0,0,1,.45,2.26,2.12,2.12,0,0,0,1,1.95,2,2,0,0,0,1.73-.36c2-1.23,3.06-3.47,4.75-5.07,1.09-1,2.43-1.8,3.57-2.79a10.52,10.52,0,0,0,3.71-8.48,9,9,0,0,0-5.12-7.55c-1.6-.7-3.41-.88-4.9-1.77-2.06-1.23-3.14-3.54-4.37-5.59a8.92,8.92,0,0,0-5.71-4.52C195.41,116.68,193.58,114.18,190.77,114.78Z"/><path class="cls-2" d="M215.5,170.94s13.76,17.88,18.22,55-.83,49.23-.83,49.23-9.5,4.91-11.72-.45-2.73-54.12-11-64.66S208,173.21,215.5,170.94Z"/><path class="cls-11" d="M215.5,170.94s13.76,17.88,18.22,55-.83,49.23-.83,49.23-9.5,4.91-11.72-.45-2.73-54.12-11-64.66S208,173.21,215.5,170.94Z"/><path class="cls-4" d="M220.08,284.79c-.26.75-.32,1.87.46,2s1.44-.58,1.87-.09a1,1,0,0,1,.17.59,13.12,13.12,0,0,1-1.19,6.23,2.43,2.43,0,0,0-.38,1.66c.29,1,1.73,1.11,2.74.79,3.65-1.13,6.29-4.48,7.42-8.13a27,27,0,0,0,.52-11.35,5.33,5.33,0,0,0-1.22-3.31c-1.8-1.75-5.07-.84-6.2,1.1C222.43,277.45,221.28,281.34,220.08,284.79Z"/><circle class="cls-2" cx="48.36" cy="75.48" r="39.96"/><circle class="cls-2" cx="178.33" cy="39.96" r="39.96"/><circle class="cls-2" cx="318.18" cy="120.61" r="39.96"/><circle class="cls-2" cx="39.96" cy="245.66" r="39.96"/><circle class="cls-2" cx="313.98" cy="262.98" r="39.96"/><path class="cls-12" d="M41.47,273.56a27.06,27.06,0,0,1-24.59-38,6.94,6.94,0,0,1,.55-1.13,9.13,9.13,0,0,0,1.74-6.53c-.61-6,6-10,11.54-7.34a4.46,4.46,0,0,0,2.9.29,26.88,26.88,0,0,1,34.62,23A26.6,26.6,0,0,1,46.06,273,44.54,44.54,0,0,1,41.47,273.56Zm2-13.46c-.31,3.09-1,5.85-4.32,7.3-.6.26-.8,2.13-.63,3.17.08.5,1.44,1.1,2.23,1.13a23.87,23.87,0,0,0,5.2-.36,24.73,24.73,0,0,0,17.23-12.1l-3-1.34c-1.68,2.55-3.28,4.92-4.84,7.33-.93,1.43-1.75,1.37-2.67,0s-2-3-3.17-4.62c-.66.79-1.16,1.45-1.7,2.06-1.31,1.47-2.74,1.36-3.69-.36a11.8,11.8,0,0,1-.69-2.16c-.28-1.62-.48-3.26-.6-4.9s-.7-2.62-2.24-2.78a32.52,32.52,0,0,0-6-.19c-2.89.25-4.85-.73-5.58-3.22s.18-3.73,3.16-5.2a35.41,35.41,0,0,0,7.57-4.69c2.38-2,2.32-3.79.37-6.24-2.58-3.24-3.09-6.63-1.32-10.37a4.87,4.87,0,0,0,.17-1l-5.54,1.22a7.85,7.85,0,0,1,.5,9.15c-1.66,3-3.48,5.91-5.34,8.79-1.21,1.86-1.75,1.83-3,0-1.71-2.5-3.34-5.06-5.15-7.83-.59,1.15-1.37,2-1.48,3-.62,5.49-.58,11.09,2.06,16,3.31,6.17,6.34,6.67,11.45,4.43.51-.22,1-.38,1.56-.61,3.76-1.61,6.45-.65,8.36,3a14.71,14.71,0,0,0,1.05,1.44ZM64,257.52a23.2,23.2,0,0,0,2.71-11c-.06-3.49-1.5-5.74-4.87-6.76-1.54-.47-3.31-.12-5-.35A31.94,31.94,0,0,1,50,238c-2.41-1-3.45-3.9-2.88-6.61.61-2.91,1.89-3.89,5.11-4.27a16.43,16.43,0,0,0,3.39-1.25,24,24,0,0,0-13.44-4.33,2.08,2.08,0,0,0-1.34,1,7.61,7.61,0,0,0,.69,9.16c2.59,3.31,2.5,6.13-.69,8.86a47.41,47.41,0,0,1-8.16,4.95c-1.18.64-2.42,1-2,2.67a2.72,2.72,0,0,0,3.07,2.3l.16,0a25.59,25.59,0,0,1,6.06,0c3.78.56,4.58,1.83,4.68,5.67a45.11,45.11,0,0,0,.93,5.89c3.14-2.8,3.13-2.8,1.68-5.78-.27-.57-.53-1.15-.74-1.74a7.82,7.82,0,0,1,4.36-9.92,8.11,8.11,0,0,1,10.37,3.85c1.31,2.61.86,5.13-.24,7.71Zm-27.5,13.56c-.22-2.55.15-4.63,2.52-5.89s2.91-3.35,1.72-5.83-3.29-3.27-5.7-2.25c-1,.44-2.05.89-3.1,1.27-4.58,1.67-8.08.79-10.89-3.18a25.36,25.36,0,0,1-3-6.36,41.29,41.29,0,0,1-1.16-5.94C14.29,254.26,22.57,268.62,36.45,271.08Zm20.75-44c-1.74.69-3.22,1.67-4.77,1.79-2.22.18-3.36,1.09-3.69,3.19a4.22,4.22,0,0,0,2.79,4.82,12.09,12.09,0,0,0,4.28.81c3.31-.28,6.52-.45,9.43,1.72a22.86,22.86,0,0,0-8-12.35Zm-3.6,36.65.85.14c1.84-3.43,3.73-6.83,5.47-10.31a4.56,4.56,0,0,0,.2-2.66A5.94,5.94,0,0,0,55.51,246a5.74,5.74,0,0,0-6.1,1.79,5.49,5.49,0,0,0-1,6.61c1.54,3.15,3.43,6.2,5.19,9.3ZM26.69,239.49h.8c1.76-3.17,3.65-6.27,5.22-9.52a5.75,5.75,0,0,0-1.95-7.28,6.29,6.29,0,0,0-7.62.16,5.76,5.76,0,0,0-1.71,7.35C23,233.34,25,236.4,26.69,239.49Z"/><path class="cls-12" d="M50.44,251a3.63,3.63,0,0,1,3.78-3.42,3.51,3.51,0,0,1,3.29,3.64,3.44,3.44,0,0,1-3.48,3.4h-.24A3.56,3.56,0,0,1,50.44,251Zm3.62-2.4c-.84,1.19-1.71,1.88-1.64,2.47s1,1.19,1.56,1.78c.59-.56,1.56-1.07,1.66-1.71S54.87,249.81,54.06,248.59Z"/><path class="cls-12" d="M27.07,230.4a3.71,3.71,0,0,1-3.6-3.43A3.57,3.57,0,0,1,27,223.34h0a3.44,3.44,0,0,1,3.54,3.34v0a3.56,3.56,0,0,1-3.44,3.68Zm.06-6.09c-.85,1.15-1.73,1.83-1.68,2.44s1,1.66,1.53,1.66a2.32,2.32,0,0,0,1.7-1.54c.09-.6-.73-1.34-1.55-2.53Z"/><path class="cls-13" d="M30.9,75.82a6.58,6.58,0,1,0,6.58,6.58A6.57,6.57,0,0,0,30.9,75.82Zm0,8.57a2,2,0,1,1,2-2A2,2,0,0,1,30.9,84.39Z"/><path class="cls-13" d="M78.82,77l-1.08-8.76a3.22,3.22,0,0,0-3.37-2.82L72,65.56,64.69,59a3.87,3.87,0,0,0-2.57-1H47.24a14.65,14.65,0,0,0-9.18,3.23l-8.3,6.67L18.6,70.67a3.22,3.22,0,0,0-2.44,3.12V77a.85.85,0,0,0-.86.85v4.26a1.1,1.1,0,0,0,1.1,1.1h6.3a7.58,7.58,0,0,1-.08-.82,8.28,8.28,0,1,1,16.55,0,7.34,7.34,0,0,1-.08.82H56.54c0-.28-.08-.54-.08-.82A8.28,8.28,0,0,1,73,82.4a7.34,7.34,0,0,1-.09.82h5.88a1.1,1.1,0,0,0,1.1-1.1v-4A1.08,1.08,0,0,0,78.82,77ZM56.74,66.25,36,67.3l4-3.2a12.11,12.11,0,0,1,7.61-2.68h9.17Zm3.45-.18V61.42h1.35a1.83,1.83,0,0,1,1.26.49L67,65.72Z"/><path class="cls-13" d="M64.74,75.82a6.58,6.58,0,1,0,6.59,6.58A6.58,6.58,0,0,0,64.74,75.82Zm0,8.57a2,2,0,1,1,2-2A2,2,0,0,1,64.74,84.39Z"/><path class="cls-13" d="M180.1,17.09c.05,1.13.09,2.25.14,3.38h-2.19c0-1.13.09-2.25.13-3.38h-5.32q-5.37,20.34-10.72,40.68h14.41c0-1.12.09-2.25.13-3.37h4.92c.05,1.12.09,2.25.14,3.37h14.4L185.43,17.09Zm-2.26,8.43h2.6c.13,3.13.25,6.26.38,9.39h-3.35C177.59,31.78,177.72,28.65,177.84,25.52Zm-1,23.83c.12-3.13.25-6.26.37-9.39H181c.13,3.13.25,6.26.38,9.39Z"/><path class="cls-13" d="M188.92,17.09h-1.81l13.57,40.68h4.91Z"/><path class="cls-13" d="M169.36,17.09,152.7,57.77h4.9l13.58-40.68Z"/><path class="cls-13" d="M313.89,239.06a25,25,0,1,0,25,25A25,25,0,0,0,313.89,239.06Zm0,42.75a17.75,17.75,0,1,1,17.76-17.75A17.75,17.75,0,0,1,313.89,281.81Z"/><path class="cls-13" d="M313.89,248.6a15.46,15.46,0,1,0,15.46,15.46A15.47,15.47,0,0,0,313.89,248.6Zm13.48,14.47h-7.5a6,6,0,0,0-1.07-2.57l5.3-5.29A13.47,13.47,0,0,1,327.37,263.07Zm-12.51-12.49a13.49,13.49,0,0,1,7.87,3.26l-5.3,5.29a5.93,5.93,0,0,0-2.57-1.06v-7.49Zm-1.94,0v7.49a5.94,5.94,0,0,0-2.56,1.06l-5.3-5.29A13.46,13.46,0,0,1,312.92,250.58Zm-9.23,4.63,5.29,5.3a5.94,5.94,0,0,0-1.06,2.56h-7.5A13.4,13.4,0,0,1,303.69,255.21Zm-3.27,9.8h7.5a6,6,0,0,0,1.06,2.57l-5.3,5.31A13.42,13.42,0,0,1,300.42,265Zm12.5,12.53a13.42,13.42,0,0,1-7.87-3.28l5.31-5.31a6,6,0,0,0,2.56,1.07Zm0-9.51h0a4,4,0,0,1-1.16-.49h0a4.08,4.08,0,0,1-1.37-1.37h0a4.3,4.3,0,0,1-.48-1.17h0a4.37,4.37,0,0,1-.12-1,4.44,4.44,0,0,1,.12-1h0a4.44,4.44,0,0,1,.48-1.17h0a4.08,4.08,0,0,1,1.37-1.37h0a4,4,0,0,1,1.16-.48h0a4.52,4.52,0,0,1,1-.12,4.37,4.37,0,0,1,1,.12h0a3.9,3.9,0,0,1,1.17.48h0a4.2,4.2,0,0,1,1.38,1.37h0a4.15,4.15,0,0,1,.49,1.17h0a4.44,4.44,0,0,1,.12,1,4.37,4.37,0,0,1-.12,1h0a4,4,0,0,1-.49,1.17h0a4.2,4.2,0,0,1-1.38,1.37h0a3.92,3.92,0,0,1-1.17.49h0a4.37,4.37,0,0,1-1,.12A4.52,4.52,0,0,1,312.92,268Zm1.94,9.51V270a5.94,5.94,0,0,0,2.57-1.07l5.31,5.31A13.42,13.42,0,0,1,314.86,277.54Zm9.25-4.65-5.31-5.31a5.94,5.94,0,0,0,1.07-2.57h7.5A13.42,13.42,0,0,1,324.11,272.89Z"/><g id="rouge"><path class="cls-13" d="M318.16,149.69S297,128.32,298,115.6s8.26-20.27,20.1-20.27h0c11.83,0,19,7.55,20.09,20.27s-20.13,34.09-20.13,34.09"/><circle class="cls-13" cx="318.13" cy="115.33" r="12.65"/><rect class="cls-13" x="317.58" y="149.29" width="1.08" height="1.08" transform="translate(-12.77 268.83) rotate(-45)"/></g><g id="eboulement"><path class="cls-12" d="M320.12,109.17l6.29,10.9a.29.29,0,0,1-.11.4.24.24,0,0,1-.15,0H315.07a.31.31,0,0,1-.3-.29s0,0,0-.07l.12-.47a.31.31,0,0,1,.06-.13l2.05-2.26a.32.32,0,0,0,.07-.19v-.9a.31.31,0,0,1,.09-.21l.53-.49a.33.33,0,0,0,.07-.13l.66-2.09a.25.25,0,0,0,0-.12l-.08-.56a.3.3,0,0,1,.12-.28l0,0a.28.28,0,0,0,.12-.27l-.07-.69a.34.34,0,0,1,0-.1l.1-.41.08-.4a.3.3,0,0,1,.2-.22l.06,0a.31.31,0,0,0,.17-.15l.4-.79v0h0a.3.3,0,0,1,.38-.16A.33.33,0,0,1,320.12,109.17Z"/><path class="cls-12" d="M318.44,109.57h0l.1-.07a.15.15,0,0,0,.15.16h0a.24.24,0,0,1,.2.23h0a.23.23,0,0,1-.13.21l-.15.07a.21.21,0,0,1-.29-.08l-.08-.12a.17.17,0,0,1,0-.2Z"/><path class="cls-12" d="M317.74,110.43l-.21.1a.2.2,0,0,0-.11.17V111a.25.25,0,0,0,.06.14l.25.22a.17.17,0,0,0,.13,0h.08a.17.17,0,0,0,.18-.15l.07-.29v-.41a.2.2,0,0,0-.19-.19h-.18Z"/><path class="cls-12" d="M318.05,111.89l-.16.07a.17.17,0,0,0-.09.13v.18a.12.12,0,0,0,0,.08l.09.17a.15.15,0,0,0,.21.06h0l0,0,0-.06.11-.25a.24.24,0,0,0,0-.12l-.07-.15a.15.15,0,0,0-.2-.08Z"/><path class="cls-12" d="M316.16,111.67l-.14.11a.24.24,0,0,1-.14,0l-.3,0a.23.23,0,0,0-.16.06l-.34.31a.22.22,0,0,0-.05.08l-.24.49a.14.14,0,0,0,0,.06l-.06.27a.24.24,0,0,1-.11.15l-.08.06a.24.24,0,0,0-.08.31l.09.17a.21.21,0,0,0,.14.12l.21.07.06,0,.38.28,0,0,.39.2a.35.35,0,0,0,.17,0l.74-.19a.26.26,0,0,0,.14-.1L317,114s0,0,0-.05l.16-.42v0l.14-.28a.19.19,0,0,0,0-.1v-.41a.28.28,0,0,0,0-.13l-.25-.41a.1.1,0,0,0,0,0l-.51-.48A.24.24,0,0,0,316.16,111.67Z"/><path class="cls-12" d="M316.57,115a.22.22,0,0,0-.18-.12h-.61a.19.19,0,0,0-.17.1l-.19.29a.21.21,0,0,0,0,.16l.08.32a.14.14,0,0,0,0,.08l.27.32a.21.21,0,0,0,.08.06l.26.1a.2.2,0,0,0,.24-.08l.11-.19a.46.46,0,0,1,.07-.07l.17-.1a.21.21,0,0,0,.1-.22l-.08-.29s0,0,0,0Z"/><path class="cls-12" d="M313.27,116.72l-.66-.37a.28.28,0,0,0-.2,0l-1.1.19a.3.3,0,0,0-.2.13l-.6.85a.27.27,0,0,0-.05.15l-.1,1.26a.34.34,0,0,0,.09.24l.48.48a.3.3,0,0,0,.25.09l.59-.06a.29.29,0,0,1,.13,0l.36.13a.32.32,0,0,0,.27,0l.72-.47a.27.27,0,0,0,.11-.1l.48-.86a.31.31,0,0,0,0-.19l-.09-.73a.3.3,0,0,0-.07-.15l-.36-.46Z"/><path class="cls-12" d="M312.87,114.27l-.24.06a.26.26,0,0,0-.17.12l-.19.26a.29.29,0,0,0,0,.13l-.08.53a.28.28,0,0,0,0,.2l.15.26a.3.3,0,0,0,.21.14l.47.08a.3.3,0,0,0,.16,0l.36-.14a.29.29,0,0,0,.18-.18l.16-.51a.3.3,0,0,0,0-.1v-.29a.29.29,0,0,0-.23-.28l-.19,0-.07,0-.32-.16A.31.31,0,0,0,312.87,114.27Z"/><path class="cls-12" d="M315,117l-.31.16a.19.19,0,0,0-.11.12l-.09.26-.06.2a.19.19,0,0,0,.06.22l.25.22a.21.21,0,0,0,.17,0l.37-.07a.2.2,0,0,0,.17-.14l.12-.37a.28.28,0,0,0,0-.09l0-.34a.2.2,0,0,0-.16-.17l-.24-.06A.17.17,0,0,0,315,117Z"/></g></g></g></svg>