<svg width="24" height="24" viewBox="0 0 24 24" fill="none" xmlns="http://www.w3.org/2000/svg">
<path d="M3.50049 5.25C4.88983 5.25 6.01611 4.07475 6.01611 2.625C6.01611 1.17525 4.88983 0 3.50049 0C2.11115 0 0.984863 1.17525 0.984863 2.625C0.984863 4.07475 2.11115 5.25 3.50049 5.25Z" fill="#DBDBDB"/>
<path d="M20.1381 7.6935C20.0835 7.6755 20.0317 7.656 19.9742 7.6395C19.9052 7.623 19.8362 7.6095 19.7658 7.5975C19.4927 7.5405 19.1937 7.5 18.8429 7.5C15.8443 7.5 13.9425 9.7755 13.3157 10.6545V7.5H8.17236V24H13.3157V15C13.3157 15 17.2027 9.351 18.8429 13.5C18.8429 17.2035 18.8429 24 18.8429 24H23.9849V12.8655C23.9849 10.3725 22.3476 8.295 20.1381 7.6935Z" fill="#DBDBDB"/>
<path d="M6.12824 7.5H0.984863V24H6.12824V7.5Z" fill="#DBDBDB"/>
</svg>
