<svg width="269" height="56" viewBox="0 0 269 56" fill="none" xmlns="http://www.w3.org/2000/svg">
<path d="M143.129 30.3154H148.754C148.038 25.1379 143.474 21.4944 137.555 21.4944C130.639 21.4944 125.308 26.4802 125.308 34.9688C125.308 43.2529 130.294 48.3921 137.67 48.3921C144.279 48.3921 148.997 44.2117 148.997 37.3211V34.0228H138.041V38.1904H143.666C143.589 41.4376 141.377 43.4958 137.696 43.4958C133.541 43.4958 130.92 40.3893 130.92 34.9177C130.92 29.4717 133.643 26.3907 137.644 26.3907C140.495 26.3907 142.426 27.8609 143.129 30.3154ZM162.001 48.4177C166.859 48.4177 170.132 46.0526 170.899 42.4092L165.862 42.0768C165.312 43.5725 163.906 44.3524 162.091 44.3524C159.368 44.3524 157.642 42.5498 157.642 39.6222V39.6095H171.014V38.1137C171.014 31.4404 166.974 28.1421 161.784 28.1421C156.006 28.1421 152.26 32.2458 152.26 38.3055C152.26 44.5313 155.954 48.4177 162.001 48.4177ZM157.642 36.2345C157.757 33.9972 159.457 32.2075 161.873 32.2075C164.239 32.2075 165.875 33.895 165.888 36.2345H157.642ZM183.44 48.4177C189.398 48.4177 193.105 44.3396 193.105 38.2927C193.105 32.2075 189.398 28.1421 183.44 28.1421C177.483 28.1421 173.775 32.2075 173.775 38.2927C173.775 44.3396 177.483 48.4177 183.44 48.4177ZM183.466 44.199C180.717 44.199 179.311 41.6805 179.311 38.2543C179.311 34.8282 180.717 32.297 183.466 32.297C186.163 32.297 187.569 34.8282 187.569 38.2543C187.569 41.6805 186.163 44.199 183.466 44.199ZM197.234 48.0342H200.251V35.608C200.251 32.949 202.348 31.0058 205.212 31.0058C206.017 31.0058 206.848 31.1592 207.052 31.2103V28.1421C206.707 28.1166 205.915 28.091 205.467 28.091C203.115 28.091 201.069 29.4205 200.354 31.3637H200.149V28.3978H197.234V48.0342ZM216.407 48.4944C219.833 48.4944 221.623 46.6535 222.237 45.3751H222.39V48.0342H225.407V35.0967C225.407 28.858 220.652 28.1421 218.146 28.1421C215.18 28.1421 211.805 29.1649 210.271 32.7444L213.134 33.7671C213.799 32.3353 215.372 30.8012 218.248 30.8012C221.022 30.8012 222.39 32.2714 222.39 34.7899V34.8921C222.39 36.3495 220.907 36.2217 217.328 36.6819C213.684 37.1549 209.708 37.9603 209.708 42.4603C209.708 46.2955 212.674 48.4944 216.407 48.4944ZM216.867 45.7842C214.464 45.7842 212.725 44.7103 212.725 42.6137C212.725 40.3126 214.822 39.5967 217.174 39.2899C218.453 39.1365 221.879 38.7785 222.39 38.1649V40.9262C222.39 43.3808 220.447 45.7842 216.867 45.7842ZM233.931 21.8524H230.914V48.0342H233.931V21.8524ZM242.474 21.8524H239.457V48.0342H242.474V21.8524ZM249.943 55.3978C252.666 55.3978 254.584 53.9532 255.721 50.8978L264.082 28.449L260.784 28.3978L255.364 44.0455H255.159L249.739 28.3978H246.466L253.727 48.1365L253.165 49.6705C252.065 52.662 250.71 52.9433 248.511 52.3808L247.744 55.0399C248.051 55.1933 248.92 55.3978 249.943 55.3978Z" fill="white"/>
<path d="M0.984131 44.3172C20.6953 21.3816 18.7576 32.9999 25.2785 24.7382C31.4047 16.8058 30.9418 20.6044 39.7212 22.6157C59.2039 5.9691 60.1795 14.1077 64.5586 4.62824C73.9021 -15.5974 103.069 37.0225 109.289 36.9439C102.498 41.6028 80.3974 2.94771 71.6241 6.85757C67.5234 11.7731 79.7122 23.823 75.0427 27.3027C75.0427 15.6844 55.1046 18.3647 55.1046 24.7338C55.1046 26.3253 61.5984 32.107 59.2054 36.2408C55.1031 23.2876 19.6697 25.7394 0.984131 44.3172Z" fill="white"/>
<path d="M109.289 48.7032C62.7359 73.6553 41.7723 20.9684 0.984131 47.543C39.9496 16.3228 60.3429 68.7863 109.289 48.7032Z" fill="white"/>
<path d="M101.299 48.6618C100.622 46.5789 96.9665 43.425 90.0908 42.9364C88.6092 42.8386 87.1919 42.2815 86.0275 41.3391C79.3544 35.8785 65.4907 36.6348 59.1577 40.0655C57.5312 41.3134 60.6363 44.5005 60.7354 44.4128C68.7762 36.5577 80.6113 38.6829 85.3414 42.6808C86.2425 43.431 87.3482 43.878 88.5072 43.9605C94.8727 44.4597 100.351 46.9964 101.299 48.6618Z" fill="white"/>
<path d="M61.9329 45.3927C61.9329 45.3927 67.41 40.092 72.6887 46.4895C70.3438 44.4774 65.8439 42.8321 61.9329 45.3927Z" fill="white"/>
<path d="M87.2488 47.9906C87.2488 47.9906 93.622 43.0836 98.6536 49.1933C95.9786 47.9906 92.1047 46.1506 87.2488 47.9906Z" fill="white"/>
<path d="M87.7548 44.3167C87.7548 44.3167 71.5969 43.3325 71.5969 40.9275C83.0833 43.848 87.7548 44.3167 87.7548 44.3167Z" fill="white"/>
</svg>
