<svg width="268" height="57" viewBox="0 0 268 57" fill="none" xmlns="http://www.w3.org/2000/svg">
<path d="M142.596 30.7837C142.246 29.5564 141.599 28.5976 140.653 27.9073C139.715 27.2084 138.535 26.859 137.111 26.859C135.109 26.859 133.485 27.6005 132.241 29.0834C131.005 30.5578 130.387 32.6587 130.387 35.386C130.387 38.1218 130.996 40.2354 132.215 41.7269C133.434 43.2184 135.083 43.9641 137.163 43.9641C139.004 43.9641 140.448 43.4868 141.496 42.5323C142.553 41.5692 143.099 40.278 143.133 38.6587H137.508V34.4911H148.464V37.7894C148.464 40.082 147.978 42.0593 147.006 43.7212C146.035 45.3746 144.697 46.6445 142.992 47.5309C141.296 48.4172 139.344 48.8604 137.137 48.8604C134.682 48.8604 132.526 48.3192 130.668 47.2368C128.81 46.1459 127.361 44.599 126.322 42.5962C125.29 40.5848 124.775 38.1985 124.775 35.4371C124.775 32.6076 125.316 30.1871 126.398 28.1757C127.481 26.1644 128.947 24.626 130.796 23.5607C132.646 22.4953 134.721 21.9627 137.022 21.9627C138.999 21.9627 140.789 22.3377 142.391 23.0877C143.994 23.8377 145.306 24.8774 146.329 26.207C147.352 27.528 147.982 29.0536 148.221 30.7837H142.596ZM161.468 48.886C159.457 48.886 157.723 48.4769 156.265 47.6587C154.808 46.832 153.687 45.6644 152.903 44.1559C152.119 42.6388 151.727 40.8448 151.727 38.7737C151.727 36.7539 152.119 34.9811 152.903 33.4556C153.687 31.93 154.791 30.7411 156.214 29.8888C157.646 29.0365 159.325 28.6104 161.251 28.6104C162.981 28.6104 164.541 28.9769 165.93 29.7098C167.328 30.4428 168.436 31.5507 169.254 33.0337C170.072 34.5081 170.481 36.3576 170.481 38.582V40.0777H157.109V40.0905C157.109 41.5564 157.51 42.7112 158.311 43.555C159.112 44.3987 160.194 44.8206 161.558 44.8206C162.47 44.8206 163.258 44.6289 163.923 44.2453C164.588 43.8618 165.056 43.2951 165.329 42.5451L170.366 42.8774C169.983 44.7013 169.011 46.1587 167.451 47.2496C165.892 48.3405 163.897 48.886 161.468 48.886ZM157.109 36.7027H165.355C165.346 35.5351 164.971 34.572 164.23 33.8135C163.488 33.055 162.525 32.6757 161.341 32.6757C160.13 32.6757 159.137 33.0678 158.362 33.8519C157.586 34.636 157.169 35.5862 157.109 36.7027ZM182.907 48.886C180.921 48.886 179.204 48.4641 177.755 47.6203C176.315 46.7681 175.203 45.5834 174.419 44.0664C173.635 42.5408 173.242 40.7723 173.242 38.761C173.242 36.7326 173.635 34.9598 174.419 33.4428C175.203 31.9172 176.315 30.7326 177.755 29.8888C179.204 29.0365 180.921 28.6104 182.907 28.6104C184.893 28.6104 186.606 29.0365 188.046 29.8888C189.495 30.7326 190.612 31.9172 191.396 33.4428C192.18 34.9598 192.572 36.7326 192.572 38.761C192.572 40.7723 192.18 42.5408 191.396 44.0664C190.612 45.5834 189.495 46.7681 188.046 47.6203C186.606 48.4641 184.893 48.886 182.907 48.886ZM182.933 44.6672C184.279 44.6672 185.298 44.1047 185.988 42.9797C186.687 41.8547 187.037 40.4357 187.037 38.7226C187.037 37.0095 186.687 35.5905 185.988 34.4655C185.298 33.332 184.279 32.7652 182.933 32.7652C181.561 32.7652 180.525 33.332 179.826 34.4655C179.127 35.5905 178.778 37.0095 178.778 38.7226C178.778 40.4357 179.127 41.8547 179.826 42.9797C180.525 44.1047 181.561 44.6672 182.933 44.6672ZM196.701 48.5024V28.8661H199.616V31.832H199.821C200.179 30.8604 200.826 30.072 201.764 29.4669C202.701 28.8618 203.758 28.5593 204.934 28.5593C205.156 28.5593 205.433 28.5635 205.765 28.572C206.098 28.5806 206.349 28.5934 206.519 28.6104V31.6786C206.417 31.653 206.183 31.6147 205.816 31.5635C205.458 31.5039 205.079 31.474 204.679 31.474C203.724 31.474 202.872 31.6743 202.122 32.0749C201.38 32.4669 200.792 33.0124 200.358 33.7112C199.931 34.4016 199.718 35.1899 199.718 36.0763V48.5024H196.701ZM215.874 48.9627C214.63 48.9627 213.501 48.7283 212.486 48.2595C211.472 47.7823 210.667 47.0962 210.07 46.2013C209.474 45.2979 209.175 44.207 209.175 42.9286C209.175 41.8036 209.397 40.8916 209.84 40.1928C210.283 39.4854 210.876 38.9314 211.617 38.5308C212.359 38.1303 213.177 37.832 214.072 37.636C214.975 37.4314 215.883 37.2695 216.795 37.1502C217.988 36.9968 218.955 36.8817 219.697 36.805C220.447 36.7198 220.992 36.5791 221.333 36.3831C221.682 36.1871 221.857 35.8462 221.857 35.3604V35.2581C221.857 33.9968 221.512 33.0166 220.822 32.3178C220.14 31.6189 219.104 31.2695 217.715 31.2695C216.275 31.2695 215.146 31.5848 214.327 32.2155C213.509 32.8462 212.934 33.5195 212.602 34.2354L209.738 33.2127C210.249 32.0195 210.931 31.0905 211.783 30.4257C212.644 29.7524 213.582 29.2837 214.596 29.0195C215.619 28.7468 216.624 28.6104 217.613 28.6104C218.244 28.6104 218.968 28.6871 219.786 28.8405C220.613 28.9854 221.41 29.288 222.177 29.7482C222.952 30.2084 223.596 30.903 224.107 31.832C224.619 32.761 224.874 34.0053 224.874 35.5649V48.5024H221.857V45.8434H221.704C221.499 46.2695 221.158 46.7255 220.681 47.2112C220.204 47.697 219.569 48.1104 218.776 48.4513C217.984 48.7922 217.016 48.9627 215.874 48.9627ZM216.334 46.2524C217.528 46.2524 218.533 46.0181 219.352 45.5493C220.178 45.0806 220.8 44.4755 221.218 43.734C221.644 42.9925 221.857 42.2127 221.857 41.3945V38.6331C221.729 38.7865 221.448 38.9272 221.013 39.055C220.587 39.1743 220.093 39.2808 219.53 39.3746C218.977 39.4598 218.435 39.5365 217.907 39.6047C217.387 39.6644 216.965 39.7155 216.641 39.7581C215.857 39.8604 215.124 40.0266 214.442 40.2567C213.769 40.4783 213.224 40.8149 212.806 41.2666C212.397 41.7098 212.192 42.3149 212.192 43.082C212.192 44.1303 212.58 44.9229 213.356 45.4598C214.14 45.9882 215.133 46.2524 216.334 46.2524ZM233.398 22.3206V48.5024H230.381V22.3206H233.398ZM241.941 22.3206V48.5024H238.924V22.3206H241.941ZM249.41 55.8149C248.899 55.8149 248.443 55.7723 248.042 55.6871C247.642 55.6104 247.365 55.5337 247.211 55.457L247.978 52.7979C249.078 53.0791 249.994 53.0706 250.727 52.7723C251.46 52.4826 252.095 51.6047 252.632 50.1388L253.194 48.6047L245.933 28.8661H249.206L254.626 44.5138H254.831L260.251 28.8661L263.549 28.9172L255.189 51.3661C254.814 52.3632 254.349 53.1899 253.795 53.8462C253.241 54.511 252.598 55.0053 251.865 55.3291C251.14 55.653 250.322 55.8149 249.41 55.8149Z" fill="#277EFF"/>
<path d="M0.450928 45.1213C20.1621 21.7696 18.2244 33.5987 24.7453 25.1871C30.8715 17.1107 30.4086 20.9782 39.188 23.026C58.6707 6.07741 59.6463 14.3637 64.0254 4.71222C73.3689 -15.8804 102.536 37.6943 108.755 37.6142C101.965 42.3577 79.8642 3.0012 71.0909 6.982C66.9902 11.9867 79.179 24.2553 74.5095 27.7981C74.5095 15.969 54.5714 18.6979 54.5714 25.1825C54.5714 26.8029 61.0652 32.6896 58.6722 36.8984C54.5699 23.7101 19.1365 26.2064 0.450928 45.1213Z" fill="#277EFF"/>
<path d="M108.755 49.5872C62.2027 74.992 41.2391 21.3491 0.450928 48.4059C39.4164 16.6193 59.8097 70.0346 108.755 49.5872Z" fill="#277EFF"/>
<path d="M100.766 49.545C100.088 47.4243 96.4333 44.2132 89.5576 43.7158C88.076 43.6162 86.6587 43.0489 85.4943 42.0894C78.8212 36.5298 64.9575 37.2998 58.6245 40.7927C56.998 42.0632 60.1031 45.3082 60.2022 45.2189C68.243 37.2212 80.0781 39.3851 84.8082 43.4555C85.7093 44.2193 86.815 44.6744 87.974 44.7584C94.3395 45.2666 99.8179 47.8493 100.766 49.545Z" fill="#277EFF"/>
<path d="M61.3999 46.2163C61.3999 46.2163 66.877 40.8194 72.1557 47.333C69.8108 45.2843 65.3109 43.6092 61.3999 46.2163Z" fill="#277EFF"/>
<path d="M86.7158 48.8611C86.7158 48.8611 93.089 43.865 98.1207 50.0856C95.4456 48.8611 91.5717 46.9877 86.7158 48.8611Z" fill="#277EFF"/>
<path d="M87.2218 45.1206C87.2218 45.1206 71.064 44.1186 71.064 41.6699C82.5503 44.6434 87.2218 45.1206 87.2218 45.1206Z" fill="#277EFF"/>
</svg>
