<svg width="13" height="13" viewBox="0 0 13 13" fill="none" xmlns="http://www.w3.org/2000/svg">
<g clip-path="url(#clip0)">
<path d="M10.4946 2.23275C8.15144 -0.110168 4.35232 -0.110429 2.00887 2.23275C-0.334306 4.57593 -0.334045 8.37506 2.00887 10.7185C4.35206 13.0612 8.15118 13.0614 10.4946 10.7185C12.8375 8.37506 12.8373 4.57619 10.4946 2.23275ZM7.03411 9.08438C7.03411 9.51665 6.68376 9.867 6.25149 9.867C5.81922 9.867 5.46886 9.51665 5.46886 9.08438V5.95388C5.46886 5.52161 5.81922 5.17125 6.25149 5.17125C6.68376 5.17125 7.03411 5.52161 7.03411 5.95388V9.08438ZM6.23766 4.61611C5.78687 4.61611 5.48634 4.2968 5.49573 3.90261C5.48634 3.48939 5.78687 3.17973 6.24679 3.17973C6.70698 3.17973 6.99811 3.48965 7.00777 3.90261C7.0075 4.2968 6.70724 4.61611 6.23766 4.61611Z" fill="#C6C6C6"/>
</g>
<defs>
<clipPath id="clip0">
<rect width="12" height="12" fill="white" transform="translate(0.251709 0.475586)"/>
</clipPath>
</defs>
</svg>
