<svg width="795" height="39" viewBox="0 0 795 39" fill="none" xmlns="http://www.w3.org/2000/svg">
<rect x="0.654297" y="0.326172" width="6.26102" height="38.5802" rx="1" fill="#4EC56F"/>
<rect x="210.784" y="0.325684" width="6.26102" height="38.5802" rx="1" fill="#4EC56F"/>
<rect x="438.425" y="0.325684" width="6.26102" height="38.5802" rx="1" fill="#4EC56F"/>
<rect x="105.719" y="0.325684" width="6.26102" height="38.5802" rx="1" fill="#4EC56F"/>
<rect x="315.849" y="0.325684" width="6.26102" height="38.5802" rx="1" fill="#4EC56F"/>
<rect x="543.49" y="0.325684" width="6.26102" height="38.5802" rx="1" fill="#4EC56F"/>
<rect x="53.1869" y="0.325684" width="6.26102" height="38.5802" rx="1" fill="#4EC56F"/>
<rect x="263.317" y="0.325684" width="6.26102" height="38.5802" rx="1" fill="#4EC56F"/>
<rect x="490.958" y="0.325684" width="6.26102" height="38.5802" rx="1" fill="#4EC56F"/>
<rect x="158.252" y="0.325684" width="6.26102" height="38.5802" rx="1" fill="#4EC56F"/>
<rect x="368.382" y="0.325684" width="6.26102" height="38.5802" rx="1" fill="#4EC56F"/>
<rect x="596.022" y="0.325684" width="6.26102" height="38.5802" rx="1" fill="#FF9D2B"/>
<rect x="657.31" y="0.325684" width="6.26102" height="38.5802" rx="1" fill="#4EC56F"/>
<rect x="744.864" y="0.325684" width="6.26102" height="38.5802" rx="1" fill="#4EC56F"/>
<rect x="18.1653" y="0.325684" width="6.26102" height="38.5802" rx="1" fill="#4EC56F"/>
<rect x="228.295" y="0.325684" width="6.26102" height="38.5802" rx="1" fill="#4EC56F"/>
<rect x="455.936" y="0.325684" width="6.26102" height="38.5802" rx="1" fill="#4EC56F"/>
<rect x="123.23" y="0.325684" width="6.26102" height="38.5802" rx="1" fill="#4EC56F"/>
<rect x="333.36" y="0.325684" width="6.26102" height="38.5802" rx="1" fill="#4EC56F"/>
<rect x="561.001" y="0.325684" width="6.26102" height="38.5802" rx="1" fill="#4EC56F"/>
<rect x="70.6975" y="0.325684" width="6.26102" height="38.5802" rx="1" fill="#4EC56F"/>
<rect x="280.828" y="0.325684" width="6.26102" height="38.5802" rx="1" fill="#4EC56F"/>
<rect x="508.468" y="0.325684" width="6.26102" height="38.5802" rx="1" fill="#4EC56F"/>
<rect x="175.763" y="0.325684" width="6.26102" height="38.5802" rx="1" fill="#4EC56F"/>
<rect x="385.893" y="0.325684" width="6.26102" height="38.5802" rx="1" fill="#4EC56F"/>
<rect x="613.533" y="0.325684" width="6.26102" height="38.5802" rx="1" fill="#4EC56F"/>
<rect x="674.821" y="0.325684" width="6.26102" height="38.5802" rx="1" fill="#4EC56F"/>
<rect x="762.375" y="0.325684" width="6.26102" height="38.5802" rx="1" fill="#4EC56F"/>
<rect x="35.6759" y="0.325684" width="6.26102" height="38.5802" rx="1" fill="#4EC56F"/>
<rect x="245.806" y="0.325684" width="6.26102" height="38.5802" rx="1" fill="#FF9D2B"/>
<rect x="473.446" y="0.325684" width="6.26102" height="38.5802" rx="1" fill="#4EC56F"/>
<rect x="140.741" y="0.325684" width="6.26102" height="38.5802" rx="1" fill="#4EC56F"/>
<rect x="350.871" y="0.325684" width="6.26102" height="38.5802" rx="1" fill="#4EC56F"/>
<rect x="578.511" y="0.325684" width="6.26102" height="38.5802" rx="1" fill="#4EC56F"/>
<rect x="88.2085" y="0.325684" width="6.26102" height="38.5802" rx="1" fill="#4EC56F"/>
<rect x="298.338" y="0.325684" width="6.26102" height="38.5802" rx="1" fill="#4EC56F"/>
<rect x="525.979" y="0.325684" width="6.26102" height="38.5802" rx="1" fill="#4EC56F"/>
<rect x="193.273" y="0.325684" width="6.26102" height="38.5802" rx="1" fill="#4EC56F"/>
<rect x="420.914" y="0.325684" width="6.26102" height="38.5802" rx="1" fill="#4EC56F"/>
<rect x="403.403" y="0.325684" width="6.26102" height="38.5802" rx="1" fill="#4EC56F"/>
<rect x="631.044" y="0.325684" width="6.26102" height="38.5802" rx="1" fill="#4EC56F"/>
<rect x="718.598" y="0.325684" width="6.26102" height="38.5802" rx="1" fill="#4EC56F"/>
<rect x="692.332" y="0.325684" width="6.26102" height="38.5802" rx="1" fill="#4EC56F"/>
<rect x="779.886" y="0.325684" width="6.26102" height="38.5802" rx="1" fill="#4EC56F"/>
<rect x="9.40967" y="0.325684" width="6.26102" height="38.5802" rx="1" fill="#4EC56F"/>
<rect x="219.54" y="0.325684" width="6.26102" height="38.5802" rx="1" fill="#4EC56F"/>
<rect x="447.18" y="0.325684" width="6.26102" height="38.5802" rx="1" fill="#4EC56F"/>
<rect x="114.475" y="0.325684" width="6.26102" height="38.5802" rx="1" fill="#4EC56F"/>
<rect x="324.605" y="0.325684" width="6.26102" height="38.5802" rx="1" fill="#4EC56F"/>
<rect x="552.245" y="0.325684" width="6.26102" height="38.5802" rx="1" fill="#4EC56F"/>
<rect x="61.9423" y="0.325684" width="6.26102" height="38.5802" rx="1" fill="#4EC56F"/>
<rect x="272.072" y="0.325684" width="6.26102" height="38.5802" rx="1" fill="#4EC56F"/>
<rect x="499.712" y="0.325684" width="6.26102" height="38.5802" rx="1" fill="#4EC56F"/>
<rect x="167.007" y="0.325684" width="6.26102" height="38.5802" rx="1" fill="#4EC56F"/>
<rect x="377.137" y="0.325684" width="6.26102" height="38.5802" rx="1" fill="#4EC56F"/>
<rect x="604.778" y="0.325684" width="6.26102" height="38.5802" rx="1" fill="#4EC56F"/>
<rect x="666.065" y="0.325684" width="6.26102" height="38.5802" rx="1" fill="#4EC56F"/>
<rect x="753.62" y="0.325684" width="6.26102" height="38.5802" rx="1" fill="#4EC56F"/>
<rect x="26.9205" y="0.325684" width="6.26102" height="38.5802" rx="1" fill="#4EC56F"/>
<rect x="237.05" y="0.325684" width="6.26102" height="38.5802" rx="1" fill="#4EC56F"/>
<rect x="464.691" y="0.325684" width="6.26102" height="38.5802" rx="1" fill="#4EC56F"/>
<rect x="131.986" y="0.325684" width="6.26102" height="38.5802" rx="1" fill="#4EC56F"/>
<rect x="342.115" y="0.325684" width="6.26102" height="38.5802" rx="1" fill="#4EC56F"/>
<rect x="569.756" y="0.325684" width="6.26102" height="38.5802" rx="1" fill="#4EC56F"/>
<rect x="79.4529" y="0.325684" width="6.26102" height="38.5802" rx="1" fill="#4EC56F"/>
<rect x="289.583" y="0.325684" width="6.26102" height="38.5802" rx="1" fill="#FF4141"/>
<rect x="517.223" y="0.325684" width="6.26102" height="38.5802" rx="1" fill="#4EC56F"/>
<rect x="184.518" y="0.325684" width="6.26102" height="38.5802" rx="1" fill="#4EC56F"/>
<rect x="394.648" y="0.325684" width="6.26102" height="38.5802" rx="1" fill="#4EC56F"/>
<rect x="622.289" y="0.325684" width="6.26102" height="38.5802" rx="1" fill="#4EC56F"/>
<rect x="709.843" y="0.325684" width="6.26102" height="38.5802" rx="1" fill="#4EC56F"/>
<rect x="683.576" y="0.325684" width="6.26102" height="38.5802" rx="1" fill="#4EC56F"/>
<rect x="771.13" y="0.325684" width="6.26102" height="38.5802" rx="1" fill="#4EC56F"/>
<rect x="44.4313" y="0.325684" width="6.26102" height="38.5802" rx="1" fill="#4EC56F"/>
<rect x="254.561" y="0.325684" width="6.26102" height="38.5802" rx="1" fill="#4EC56F"/>
<rect x="482.202" y="0.325684" width="6.26102" height="38.5802" rx="1" fill="#4EC56F"/>
<rect x="149.496" y="0.325684" width="6.26102" height="38.5802" rx="1" fill="#4EC56F"/>
<rect x="359.626" y="0.325684" width="6.26102" height="38.5802" rx="1" fill="#4EC56F"/>
<rect x="587.267" y="0.325684" width="6.26102" height="38.5802" rx="1" fill="#4EC56F"/>
<rect x="648.554" y="0.325684" width="6.26102" height="38.5802" rx="1" fill="#4EC56F"/>
<rect x="736.108" y="0.325684" width="6.26102" height="38.5802" rx="1" fill="#4EC56F"/>
<rect x="96.9639" y="0.325684" width="6.26102" height="38.5802" rx="1" fill="#4EC56F"/>
<rect x="307.094" y="0.325684" width="6.26102" height="38.5802" rx="1" fill="#4EC56F"/>
<rect x="534.734" y="0.325684" width="6.26102" height="38.5802" rx="1" fill="#4EC56F"/>
<rect x="202.029" y="0.325684" width="6.26102" height="38.5802" rx="1" fill="#4EC56F"/>
<rect x="429.669" y="0.325684" width="6.26102" height="38.5802" rx="1" fill="#4EC56F"/>
<rect x="412.159" y="0.325684" width="6.26102" height="38.5802" rx="1" fill="#4EC56F"/>
<rect x="639.799" y="0.325684" width="6.26102" height="38.5802" rx="1" fill="#4EC56F"/>
<rect x="727.353" y="0.325684" width="6.26102" height="38.5802" rx="1" fill="#4EC56F"/>
<rect x="701.087" y="0.325684" width="6.26102" height="38.5802" rx="1" fill="#4EC56F"/>
<rect x="788.641" y="0.325684" width="6.26102" height="38.5802" rx="1" fill="#4EC56F"/>
</svg>
