<svg width="25" height="20" viewBox="0 0 25 20" fill="none" xmlns="http://www.w3.org/2000/svg">
<path d="M22.5189 5.01925C23.4949 4.32625 24.3159 3.46125 24.9849 2.46525V2.46425C24.0919 2.85525 23.1419 3.11525 22.1499 3.24125C23.1699 2.63225 23.9489 1.67525 24.3149 0.52225C23.3639 1.08925 22.3139 1.48925 21.1949 1.71325C20.2919 0.75125 19.0049 0.15625 17.6009 0.15625C14.8769 0.15625 12.6839 2.36725 12.6839 5.07725C12.6839 5.46725 12.7169 5.84225 12.7979 6.19925C8.70786 5.99925 5.08786 4.03925 2.65586 1.05225C2.23186 1.78925 1.98186 2.63225 1.98186 3.53925C1.98186 5.24325 2.85886 6.75325 4.16786 7.62825C3.37686 7.61325 2.60186 7.38325 1.94486 7.02225V7.07625C1.94486 9.46725 3.64986 11.4533 5.88686 11.9113C5.48586 12.0213 5.04986 12.0732 4.59686 12.0732C4.28186 12.0732 3.96386 12.0553 3.66586 11.9893C4.30286 13.9373 6.11286 15.3702 8.26286 15.4172C6.58886 16.7262 4.46286 17.5152 2.16186 17.5152C1.75886 17.5152 1.37186 17.4972 0.984863 17.4482C3.16486 18.8532 5.74686 19.6562 8.53286 19.6562C17.2159 19.6562 22.8749 12.4123 22.5189 5.01925V5.01925Z" fill="#DBDBDB"/>
</svg>
